<?xml version="1.0" encoding="UTF-8" standalone="no"?>
<!-- Created with Inkscape (http://www.inkscape.org/) -->

<svg
   xmlns:dc="http://purl.org/dc/elements/1.1/"
   xmlns:cc="http://creativecommons.org/ns#"
   xmlns:rdf="http://www.w3.org/1999/02/22-rdf-syntax-ns#"
   xmlns:svg="http://www.w3.org/2000/svg"
   xmlns="http://www.w3.org/2000/svg"
   xmlns:sodipodi="http://sodipodi.sourceforge.net/DTD/sodipodi-0.dtd"
   xmlns:inkscape="http://www.inkscape.org/namespaces/inkscape"
   width="52.916664mm"
   height="14.11206mm"
   viewBox="0 0 52.916664 14.11206"
   version="1.1"
   id="svg8"
   inkscape:version="0.92.4 (5da689c313, 2019-01-14)"
   sodipodi:docname="logo.svg">
  <defs
     id="defs2" />
  <sodipodi:namedview
     id="base"
     pagecolor="#ffffff"
     bordercolor="#666666"
     borderopacity="1.0"
     inkscape:pageopacity="0.0"
     inkscape:pageshadow="2"
     inkscape:zoom="8.8150003"
     inkscape:cx="99.999997"
     inkscape:cy="26.668458"
     inkscape:document-units="mm"
     inkscape:current-layer="layer1"
     showgrid="false"
     fit-margin-top="0"
     fit-margin-left="0"
     fit-margin-right="0"
     fit-margin-bottom="0"
     inkscape:window-width="1920"
     inkscape:window-height="1020"
     inkscape:window-x="0"
     inkscape:window-y="31"
     inkscape:window-maximized="1" />
  <metadata
     id="metadata5">
    <rdf:RDF>
      <cc:Work
         rdf:about="">
        <dc:format>image/svg+xml</dc:format>
        <dc:type
           rdf:resource="http://purl.org/dc/dcmitype/StillImage" />
        <dc:title></dc:title>
      </cc:Work>
    </rdf:RDF>
  </metadata>
  <g
     inkscape:label="Camada 1"
     inkscape:groupmode="layer"
     id="layer1"
     transform="translate(85.480939,-115.00006)">
    <g
       aria-label="Scalc.js"
       style="font-style:normal;font-weight:normal;font-size:14.58198738px;line-height:1.25;font-family:sans-serif;letter-spacing:0px;word-spacing:0px;fill:#000000;fill-opacity:1;stroke:none;stroke-width:0.36454967"
       id="text12">
      <path
         d="m -78.638512,115.79752 v 1.40266 q -0.818813,-0.39161 -1.545064,-0.58385 -0.726252,-0.19224 -1.402662,-0.19224 -1.174819,0 -1.815629,0.45568 -0.633689,0.45569 -0.633689,1.29586 0,0.70489 0.420086,1.06802 0.427207,0.35601 1.609145,0.57673 l 0.868654,0.178 q 1.609145,0.30617 2.370997,1.08226 0.768972,0.76897 0.768972,2.06483 0,1.54506 -1.039536,2.34252 -1.032417,0.79745 -3.033168,0.79745 -0.754732,0 -1.609145,-0.17088 -0.847293,-0.17089 -1.758667,-0.50553 v -1.48098 q 0.875773,0.49128 1.715946,0.74049 0.840174,0.2492 1.651866,0.2492 1.231779,0 1.90107,-0.48417 0.66929,-0.48416 0.66929,-1.3813 0,-0.78321 -0.484167,-1.22466 -0.477048,-0.44144 -1.573545,-0.66217 l -0.875773,-0.17088 q -1.609146,-0.3204 -2.328277,-1.00394 -0.719131,-0.68353 -0.719131,-1.90106 0,-1.40979 0.989695,-2.22148 0.996816,-0.81169 2.741243,-0.81169 0.747612,0 1.523704,0.13528 0.776092,0.13528 1.587785,0.40585 z"
         style="stroke-width:0.36454967"
         id="path54"
         inkscape:connector-curvature="0" />
      <path
         d="m -70.073018,118.4106 v 1.22466 q -0.555369,-0.30617 -1.117858,-0.45569 -0.555369,-0.15664 -1.124977,-0.15664 -1.2745,0 -1.979391,0.81169 -0.704891,0.80457 -0.704891,2.26419 0,1.45963 0.704891,2.27132 0.704891,0.80457 1.979391,0.80457 0.569608,0 1.124977,-0.14952 0.562489,-0.15664 1.117858,-0.46281 v 1.21042 q -0.548249,0.25633 -1.139218,0.38449 -0.583849,0.12816 -1.24602,0.12816 -1.801388,0 -2.862284,-1.1321 -1.060897,-1.1321 -1.060897,-3.05453 0,-1.95091 1.068017,-3.06876 1.075137,-1.11786 2.940606,-1.11786 0.605209,0 1.181938,0.12816 0.576729,0.12104 1.117858,0.37025 z"
         style="stroke-width:0.36454967"
         id="path56"
         inkscape:connector-curvature="0" />
      <path
         d="m -64.156206,122.07033 q -1.587785,0 -2.200114,0.36313 -0.61233,0.36313 -0.61233,1.2389 0,0.69777 0.455687,1.11074 0.462808,0.40584 1.25314,0.40584 1.089377,0 1.744427,-0.76897 0.66217,-0.77609 0.66217,-2.05771 v -0.29193 z m 2.613081,-0.54112 v 4.54975 h -1.310101 v -1.21042 q -0.448567,0.72625 -1.117857,1.07513 -0.66929,0.34177 -1.637626,0.34177 -1.224659,0 -1.95091,-0.68353 -0.719131,-0.69065 -0.719131,-1.84411 0,-1.3457 0.897134,-2.02923 0.904254,-0.68353 2.691402,-0.68353 h 1.836988 v -0.12816 q 0,-0.90426 -0.598089,-1.39555 -0.590969,-0.4984 -1.666106,-0.4984 -0.683531,0 -1.331461,0.16376 -0.64793,0.16376 -1.246019,0.49129 v -1.21042 q 0.719131,-0.27769 1.395542,-0.41297 0.67641,-0.1424 1.31722,-0.1424 1.730187,0 2.584601,0.89713 0.854413,0.89714 0.854413,2.71989 z"
         style="stroke-width:0.36454967"
         id="path58"
         inkscape:connector-curvature="0" />
      <path
         d="m -58.837483,115.00006 h 1.310101 v 11.0789 h -1.310101 z"
         style="stroke-width:0.36454967"
         id="path60"
         inkscape:connector-curvature="0" />
      <path
         d="m -49.054451,118.4106 v 1.22466 q -0.555369,-0.30617 -1.117858,-0.45569 -0.555368,-0.15664 -1.124977,-0.15664 -1.2745,0 -1.979391,0.81169 -0.704891,0.80457 -0.704891,2.26419 0,1.45963 0.704891,2.27132 0.704891,0.80457 1.979391,0.80457 0.569609,0 1.124977,-0.14952 0.562489,-0.15664 1.117858,-0.46281 v 1.21042 q -0.548249,0.25633 -1.139218,0.38449 -0.583849,0.12816 -1.24602,0.12816 -1.801388,0 -2.862284,-1.1321 -1.060897,-1.1321 -1.060897,-3.05453 0,-1.95091 1.068017,-3.06876 1.075137,-1.11786 2.940606,-1.11786 0.605209,0 1.181938,0.12816 0.576729,0.12104 1.117858,0.37025 z"
         style="stroke-width:0.36454967"
         id="path62"
         inkscape:connector-curvature="0" />
      <path
         d="m -46.576651,124.27045 h 1.502343 v 1.80851 h -1.502343 z"
         style="stroke-width:0.36454967"
         id="path64"
         inkscape:connector-curvature="0" />
      <path
         d="m -42.119463,118.10443 h 1.3101 v 8.11693 q 0,1.5237 -0.583849,2.20723 -0.576729,0.68353 -1.865469,0.68353 h -0.498408 v -1.11073 h 0.348886 q 0.747611,0 1.018175,-0.34889 0.270565,-0.34176 0.270565,-1.43114 z m 0,-3.10437 h 1.3101 v 1.65899 h -1.3101 z"
         style="fill:#ffcc00;stroke-width:0.36454967"
         id="path66"
         inkscape:connector-curvature="0" />
      <path
         d="m -32.99148,118.3394 v 1.2389 q -0.555369,-0.28481 -1.153458,-0.42721 -0.59809,-0.1424 -1.2389,-0.1424 -0.975455,0 -1.466742,0.29904 -0.484168,0.29905 -0.484168,0.89714 0,0.45568 0.348885,0.71913 0.348886,0.25632 1.402662,0.49128 l 0.448567,0.0997 q 1.395542,0.29904 1.979391,0.84729 0.590969,0.54113 0.590969,1.51658 0,1.11074 -0.882893,1.75867 -0.875774,0.64793 -2.413718,0.64793 -0.64081,0 -1.338581,-0.12816 -0.690651,-0.12104 -1.459623,-0.37025 v -1.35282 q 0.726252,0.37737 1.431143,0.56961 0.704891,0.18512 1.395541,0.18512 0.925615,0 1.424023,-0.31328 0.498407,-0.32041 0.498407,-0.89714 0,-0.534 -0.363125,-0.81881 -0.356006,-0.2848 -1.573545,-0.54825 l -0.455687,-0.1068 q -1.217539,-0.25632 -1.758667,-0.78321 -0.541129,-0.53401 -0.541129,-1.45962 0,-1.12498 0.797453,-1.73731 0.797452,-0.61233 2.264195,-0.61233 0.726251,0 1.367061,0.1068 0.64081,0.1068 1.181939,0.32041 z"
         style="fill:#ffcc00;stroke-width:0.36454967"
         id="path68"
         inkscape:connector-curvature="0" />
    </g>
  </g>
</svg>
