<?xml version="1.0" encoding="UTF-8" standalone="no"?>
<svg
   xmlns:dc="http://purl.org/dc/elements/1.1/"
   xmlns:cc="http://creativecommons.org/ns#"
   xmlns:rdf="http://www.w3.org/1999/02/22-rdf-syntax-ns#"
   xmlns:svg="http://www.w3.org/2000/svg"
   xmlns="http://www.w3.org/2000/svg"
   xmlns:sodipodi="http://sodipodi.sourceforge.net/DTD/sodipodi-0.dtd"
   xmlns:inkscape="http://www.inkscape.org/namespaces/inkscape"
   width="32"
   height="32"
   viewBox="0 0 32 32"
   version="1.1"
   id="svg4"
   sodipodi:docname="apps.svg"
   inkscape:version="1.0.2 (e86c870879, 2021-01-15)">
  <metadata
     id="metadata10">
    <rdf:RDF>
      <cc:Work
         rdf:about="">
        <dc:format>image/svg+xml</dc:format>
        <dc:type
           rdf:resource="http://purl.org/dc/dcmitype/StillImage" />
        <dc:title />
      </cc:Work>
    </rdf:RDF>
  </metadata>
  <defs
     id="defs8" />
  <sodipodi:namedview
     pagecolor="#ffffff"
     bordercolor="#666666"
     borderopacity="1"
     objecttolerance="10"
     gridtolerance="10"
     guidetolerance="10"
     inkscape:pageopacity="0"
     inkscape:pageshadow="2"
     inkscape:window-width="1920"
     inkscape:window-height="1029"
     id="namedview6"
     showgrid="false"
     fit-margin-top="0"
     fit-margin-left="0"
     fit-margin-right="0"
     fit-margin-bottom="0"
     inkscape:zoom="18.517359"
     inkscape:cx="16"
     inkscape:cy="16"
     inkscape:window-x="0"
     inkscape:window-y="27"
     inkscape:window-maximized="1"
     inkscape:current-layer="svg4"
     inkscape:document-rotation="0"
     inkscape:snap-global="false" />
  <g
     id="g77">
    <rect
       style="fill:none;stroke:none;stroke-width:0.546507"
       id="rect9"
       width="32"
       height="32"
       x="-1.8017577e-07"
       y="-4.5732116e-09" />
    <g
       id="g3518"
       transform="matrix(0.275,0,0,0.275,-64.685,5.9668725)"
       style="fill:#959da5;fill-opacity:1;stroke:none">
      <path
         id="path58241"
         style="fill:#959da5;fill-opacity:1;stroke:none;stroke-width:2;stroke-linecap:round;stroke-linejoin:round;stroke-dashoffset:162"
         d="m 293.4,-3.5158 c -2.74,0 -5.41,0.2872 -8,0.8125 v 6.1875 c -3.47,0.8389 -6.72,2.1847 -9.68,4 l -4.38,-4.375 c -2.24,1.4862 -4.29,3.2298 -6.19,5.125 -1.89,1.8948 -3.64,3.9448 -5.12,6.1878 l 4.37,4.375 c -1.81,2.967 -3.16,6.212 -4,9.687 h -6.18 c -0.53,2.585 -0.82,5.261 -0.82,8 0,2.739 0.29,5.415 0.82,8 h 6.18 c 0.84,3.475 2.19,6.72 4,9.688 l -4.37,4.375 c 1.48,2.242 3.23,4.292 5.12,6.187 1.9,1.895 3.95,3.639 6.19,5.125 l 4.38,-4.375 c 2.96,1.816 6.21,3.161 9.68,4 v 6.188 c 2.59,0.525 5.26,0.812 8,0.812 2.74,0 5.42,-0.287 8,-0.812 v -6.188 c 3.48,-0.839 6.72,-2.184 9.69,-4 l 4.38,4.375 c 2.24,-1.486 4.29,-3.23 6.18,-5.125 1.9,-1.895 3.64,-3.945 5.13,-6.187 l -4.38,-4.375 c 1.82,-2.968 3.16,-6.213 4,-9.688 h 6.19 c 0.53,-2.585 0.81,-5.261 0.81,-8 0,-2.739 -0.28,-5.415 -0.81,-8 h -6.19 c -0.84,-3.475 -2.18,-6.72 -4,-9.687 l 4.38,-4.375 c -1.49,-2.243 -3.23,-4.293 -5.13,-6.1878 -1.89,-1.8952 -3.94,-3.6388 -6.18,-5.125 l -4.38,4.375 c -2.97,-1.8153 -6.21,-3.1611 -9.69,-4 v -6.1875 c -2.58,-0.5253 -5.26,-0.8125 -8,-0.8125 z m 0,20 c 11.04,0 20,8.96 20,20 0,11.04 -8.96,20 -20,20 -11.04,0 -20,-8.96 -20,-20 0,-11.04 8.96,-20 20,-20 z" />
    </g>
  </g>
</svg>
