<?xml version="1.0" encoding="UTF-8" standalone="no"?>
<svg
   xmlns:dc="http://purl.org/dc/elements/1.1/"
   xmlns:cc="http://creativecommons.org/ns#"
   xmlns:rdf="http://www.w3.org/1999/02/22-rdf-syntax-ns#"
   xmlns:svg="http://www.w3.org/2000/svg"
   xmlns="http://www.w3.org/2000/svg"
   xmlns:xlink="http://www.w3.org/1999/xlink"
   xmlns:sodipodi="http://sodipodi.sourceforge.net/DTD/sodipodi-0.dtd"
   xmlns:inkscape="http://www.inkscape.org/namespaces/inkscape"
   width="8.4666662mm"
   height="7.4115772mm"
   viewBox="0 0 8.4666664 7.4115768"
   version="1.1"
   id="svg8"
   inkscape:version="1.0.2 (e86c870879, 2021-01-15)"
   sodipodi:docname="connector.svg">
  <defs
     id="defs2">
    <inkscape:perspective
       sodipodi:type="inkscape:persp3d"
       inkscape:vp_x="0 : -141.08843 : 1"
       inkscape:vp_y="0 : 999.99987 : 0"
       inkscape:vp_z="210.00001 : -141.08843 : 1"
       inkscape:persp3d-origin="105.00001 : -190.58841 : 1"
       id="perspective10" />
    <linearGradient
       inkscape:collect="always"
       id="linearGradient1065">
      <stop
         style="stop-color:#d4aa00;stop-opacity:1"
         offset="0"
         id="stop1061" />
      <stop
         style="stop-color:#aa4400;stop-opacity:1"
         offset="1"
         id="stop1063" />
    </linearGradient>
    <linearGradient
       inkscape:collect="always"
       xlink:href="#linearGradient1065"
       id="linearGradient1067-3"
       x1="-327.2269"
       y1="-976.92224"
       x2="-171.32002"
       y2="-842.05768"
       gradientUnits="userSpaceOnUse"
       gradientTransform="matrix(0.05088247,0,0,0.05088247,-12.791332,183.94429)" />
  </defs>
  <sodipodi:namedview
     id="base"
     pagecolor="#ffffff"
     bordercolor="#666666"
     borderopacity="1.0"
     inkscape:pageopacity="0.0"
     inkscape:pageshadow="2"
     inkscape:zoom="29.915421"
     inkscape:cx="15.999989"
     inkscape:cy="14.00623"
     inkscape:document-units="mm"
     inkscape:current-layer="layer1"
     inkscape:document-rotation="0"
     showgrid="false"
     fit-margin-top="0"
     fit-margin-left="0"
     fit-margin-right="0"
     fit-margin-bottom="0"
     inkscape:window-width="1920"
     inkscape:window-height="1029"
     inkscape:window-x="0"
     inkscape:window-y="27"
     inkscape:window-maximized="1"
     inkscape:snap-global="false" />
  <metadata
     id="metadata5">
    <rdf:RDF>
      <cc:Work
         rdf:about="">
        <dc:format>image/svg+xml</dc:format>
        <dc:type
           rdf:resource="http://purl.org/dc/dcmitype/StillImage" />
        <dc:title />
      </cc:Work>
    </rdf:RDF>
  </metadata>
  <g
     inkscape:label="Layer 1"
     inkscape:groupmode="layer"
     id="layer1"
     transform="translate(29.748314,-133.92173)">
    <g
       id="g42">
      <path
         id="rect190-5"
         style="fill:url(#linearGradient1067-3);fill-opacity:1;stroke-width:0.383964"
         d="m -27.916542,133.92175 c -0.99706,0 -1.802599,0.78883 -1.830477,1.77891 h -0.0013 v 0.0529 3.74801 1.83177 h 1.831769 4.724416 0.07871 c 0.996993,0 1.802496,-0.78871 1.830476,-1.7787 h 0.0013 v -0.0531 -3.74801 -1.83176 h -1.83177 -4.724316 z" />
      <g
         id="g36"
         transform="matrix(1.1956908,0,0,1.1956908,22.862236,-25.494572)"
         style="fill:#ffffff">
        <path
           id="path29"
           style="fill:#ffffff;stroke-width:0.00462957"
           d="m -40.745313,134.68286 c -0.0086,1e-4 -0.01701,2e-4 -0.02584,5.2e-4 l -0.01964,0.001 c -0.06917,0.001 -0.138092,0.002 -0.207222,0.004 l -0.447518,0.009 c -0.049,10e-4 -0.09825,0.002 -0.147278,0.003 -0.02254,0 -0.04402,0.003 -0.0646,0.008 -0.0089,0.002 -0.01805,0.005 -0.02635,0.007 -0.09585,0.0338 -0.152261,0.11934 -0.149861,0.23978 5e-4,0.0316 0.0013,0.0656 0.0021,0.0997 l 10e-4,0.0661 c 0.0037,0.17611 0.0079,0.35223 0.01137,0.52865 0.001,0.0559 0.0021,0.11163 0.0031,0.16743 8e-4,0.0399 -0.0011,0.0802 -0.0057,0.11989 -0.0038,0.0329 -0.01226,0.0627 -0.02636,0.0961 -0.04061,0.0874 -0.119573,0.13684 -0.210323,0.13384 -0.03009,-0.002 -0.0622,-0.009 -0.09302,-0.0233 -0.04259,-0.0172 -0.07997,-0.0466 -0.117306,-0.0739 -0.141064,-0.1039 -0.31152,-0.13282 -0.455786,-0.0775 -0.03609,0.0132 -0.07053,0.0315 -0.102319,0.0548 -0.03022,0.0219 -0.05696,0.0478 -0.0801,0.0765 -0.08071,0.0932 -0.114687,0.20728 -0.110587,0.33331 6.72e-4,0.002 5.81e-4,0.005 5.17e-4,0.016 0.0012,0.12605 0.04006,0.23825 0.12454,0.32815 0.0243,0.0274 0.05192,0.0525 0.0832,0.0729 0.03301,0.0217 0.06828,0.0382 0.104903,0.0501 0.146409,0.0491 0.315552,0.013 0.452169,-0.0966 0.03608,-0.0289 0.07259,-0.0593 0.113688,-0.0791 0.02862,-0.0138 0.05772,-0.0224 0.08578,-0.0264 0.09377,-0.009 0.177999,0.0386 0.225309,0.13075 0.01276,0.0259 0.02167,0.0556 0.02687,0.0884 0.0064,0.0394 0.0099,0.08 0.01085,0.11989 0.0013,0.0558 0.0023,0.11133 0.0036,0.16743 0.0044,0.198 0.0083,0.39624 0.0124,0.59428 7e-4,0.0342 0.0014,0.0685 0.0021,0.10387 0.0024,0.1166 0.06297,0.19974 0.160197,0.22944 0.009,0.001 0.01787,0.003 0.02687,0.006 0.02012,0.004 0.04153,0.006 0.06408,0.005 0.04915,-0.001 0.09814,-0.002 0.147278,-0.003 l 0.447518,-0.009 c 0.06,-8.7e-4 0.120211,-0.002 0.18035,-0.004 z"
           sodipodi:nodetypes="cccccccccccccccccccccccccccccccccccccccccc" />
        <path
           id="path32"
           style="fill:#ffffff;stroke-width:0.00462957"
           d="m -39.399305,134.68274 c -0.04922,0.001 -0.09822,0.002 -0.147278,0.003 l -0.447518,0.009 c -0.05987,8.7e-4 -0.119879,0.002 -0.179833,0.004 v 3.46852 c 0.0084,-1e-4 0.01667,-2e-4 0.02532,-5.2e-4 l 0.01964,-5.1e-4 c 0.0691,-0.001 0.138082,-0.002 0.207223,-0.004 l 0.447517,-0.009 c 0.04921,-0.001 0.09825,-0.002 0.147278,-0.003 0.02258,0 0.04403,-0.003 0.0646,-0.008 0.0089,-0.002 0.01806,-0.005 0.02636,-0.007 0.09586,-0.0338 0.152878,-0.11937 0.150378,-0.23978 -5e-4,-0.0316 -0.0013,-0.0661 -0.0021,-0.10025 -0.0041,-0.19797 -0.0085,-0.39598 -0.0124,-0.59428 -10e-4,-0.0559 -0.0021,-0.11163 -0.0031,-0.16743 -8e-4,-0.0399 0.0011,-0.0803 0.0057,-0.11989 0.004,-0.0331 0.01182,-0.0631 0.02584,-0.0966 0.04058,-0.0875 0.12009,-0.13632 0.21084,-0.13332 0.03014,0.002 0.0622,0.009 0.09302,0.0232 0.04259,0.0172 0.07998,0.0461 0.117306,0.0734 0.141049,0.1039 0.311017,0.13333 0.455269,0.078 0.03611,-0.0132 0.0709,-0.0317 0.102836,-0.0548 0.03021,-0.0219 0.05668,-0.048 0.07958,-0.0765 0.08072,-0.0932 0.115204,-0.20728 0.111104,-0.33332 -6.72e-4,-0.002 -0.0011,-0.005 -0.001,-0.016 -0.0012,-0.12605 -0.04006,-0.23876 -0.12454,-0.32866 -0.02424,-0.0275 -0.0514,-0.0525 -0.08268,-0.0729 -0.03312,-0.0215 -0.0688,-0.0382 -0.10542,-0.0501 -0.146397,-0.0493 -0.31502,-0.0131 -0.451652,0.0966 -0.03607,0.0289 -0.07244,0.0592 -0.113688,0.0791 -0.02862,0.0138 -0.05772,0.0229 -0.08578,0.0269 -0.09372,0.009 -0.178149,-0.0388 -0.225309,-0.13125 -0.01262,-0.0261 -0.02167,-0.0555 -0.02687,-0.0884 -0.0064,-0.0395 -0.0099,-0.0795 -0.01085,-0.11937 -0.0012,-0.0559 -0.0023,-0.11175 -0.0036,-0.16795 -0.0044,-0.19799 -0.0083,-0.39623 -0.0124,-0.59428 -7e-4,-0.0342 -0.0018,-0.068 -0.0026,-0.10335 -0.0024,-0.1166 -0.06245,-0.20026 -0.15968,-0.22996 -0.0077,-0.003 -0.01656,-0.005 -0.02687,-0.006 -0.02012,-0.004 -0.042,-0.006 -0.0646,-0.005 z"
           sodipodi:nodetypes="cccccccccccccccccccccccccccccccccccccccccc" />
      </g>
    </g>
  </g>
</svg>
