<?xml version="1.0" encoding="UTF-8" standalone="no"?>
<svg
   xmlns:dc="http://purl.org/dc/elements/1.1/"
   xmlns:cc="http://creativecommons.org/ns#"
   xmlns:rdf="http://www.w3.org/1999/02/22-rdf-syntax-ns#"
   xmlns:svg="http://www.w3.org/2000/svg"
   xmlns="http://www.w3.org/2000/svg"
   xmlns:xlink="http://www.w3.org/1999/xlink"
   xmlns:sodipodi="http://sodipodi.sourceforge.net/DTD/sodipodi-0.dtd"
   xmlns:inkscape="http://www.inkscape.org/namespaces/inkscape"
   viewBox="0 0 83.999997 112.00168"
   version="1.1"
   id="svg50"
   sodipodi:docname="gist.svg"
   width="84"
   height="112.00169"
   inkscape:version="1.0.2 (e86c870879, 2021-01-15)">
  <metadata
     id="metadata54">
    <rdf:RDF>
      <cc:Work
         rdf:about="">
        <dc:format>image/svg+xml</dc:format>
        <dc:type
           rdf:resource="http://purl.org/dc/dcmitype/StillImage" />
        <dc:title></dc:title>
      </cc:Work>
    </rdf:RDF>
  </metadata>
  <sodipodi:namedview
     pagecolor="#ffffff"
     bordercolor="#666666"
     borderopacity="1"
     objecttolerance="10"
     gridtolerance="10"
     guidetolerance="10"
     inkscape:pageopacity="0"
     inkscape:pageshadow="2"
     inkscape:window-width="1920"
     inkscape:window-height="1029"
     id="namedview52"
     showgrid="false"
     fit-margin-top="0"
     fit-margin-left="0"
     fit-margin-right="0"
     fit-margin-bottom="0"
     inkscape:zoom="7.4820302"
     inkscape:cx="42"
     inkscape:cy="56.000844"
     inkscape:window-x="0"
     inkscape:window-y="27"
     inkscape:window-maximized="1"
     inkscape:current-layer="svg50"
     inkscape:document-rotation="0" />
  <defs
     id="0">
    <linearGradient
       id="7">
      <stop
         id="R"
         stop-color="#00c4cc"
         stop-opacity="0.476" />
      <stop
         id="S"
         offset="0.5"
         stop-color="#00c4cc"
         stop-opacity="0.661" />
      <stop
         offset="0.75"
         id="T"
         stop-color="#00c4cc"
         stop-opacity="0.767" />
      <stop
         offset="1"
         id="U"
         stop-color="#a1fbff" />
    </linearGradient>
    <linearGradient
       id="8">
      <stop
         id="V"
         stop-color="#6193cf" />
      <stop
         offset="1"
         id="W"
         stop-color="#4681c7" />
    </linearGradient>
    <linearGradient
       id="9">
      <stop
         id="X"
         stop-color="#8bb300" />
      <stop
         offset="1"
         id="Y"
         stop-color="#799b00" />
    </linearGradient>
    <linearGradient
       id="A">
      <stop
         id="Z"
         stop-color="#bf0303" />
      <stop
         offset="1"
         id="a"
         stop-color="#a20303" />
    </linearGradient>
    <linearGradient
       id="B">
      <stop
         id="b"
         stop-color="#eee" />
      <stop
         offset="1"
         id="c"
         stop-color="#d2d2d2" />
    </linearGradient>
    <linearGradient
       id="C">
      <stop
         id="d" />
      <stop
         offset="1"
         id="e"
         stop-opacity="0.536" />
    </linearGradient>
    <linearGradient
       id="D">
      <stop
         id="f" />
      <stop
         offset="1"
         id="g"
         stop-color="#ddd"
         stop-opacity="0" />
    </linearGradient>
    <filter
       id="E"
       x="-0.147"
       width="1.294"
       y="-0.145"
       height="1.29">
      <feGaussianBlur
         stdDeviation="1.81881"
         id="h" />
    </filter>
    <filter
       id="F">
      <feGaussianBlur
         stdDeviation="2.58594"
         id="i" />
    </filter>
    <radialGradient
       xlink:href="#C"
       r="18.278999"
       cy="22.254"
       cx="89.510002"
       gradientTransform="matrix(1,0,0,0.97467889,0,0.43910718)"
       gradientUnits="userSpaceOnUse"
       id="G" />
    <linearGradient
       xlink:href="#D"
       id="H"
       gradientUnits="userSpaceOnUse"
       gradientTransform="matrix(0.9376465,0,0,0.9376465,-10.507501,7.7448251)"
       x1="98.330002"
       y1="14.793"
       x2="86.82"
       y2="25.1" />
    <radialGradient
       xlink:href="#B"
       id="I"
       gradientUnits="userSpaceOnUse"
       gradientTransform="matrix(1.9415169,-1.5483149,1.7231168,2.1607104,-281.66743,30.809736)"
       cx="81.790001"
       cy="100.32"
       r="44.419998" />
    <radialGradient
       xlink:href="#A"
       id="J"
       cx="36.889"
       cy="88.239998"
       r="9.1990004"
       gradientTransform="matrix(4.861897,-5.5979101,3.7120439,3.2239841,-470.0245,25.923978)"
       gradientUnits="userSpaceOnUse" />
    <radialGradient
       xlink:href="#9"
       id="K"
       cx="64.589996"
       cy="100.29"
       r="9.1990004"
       gradientTransform="matrix(2.3091359,-0.59535469,1.0000016,3.8785958,-184.84649,-241.60168)"
       gradientUnits="userSpaceOnUse" />
    <radialGradient
       xlink:href="#8"
       id="L"
       cx="94.57"
       cy="80.599998"
       r="9.1990004"
       gradientTransform="matrix(1.7214899,-5.8871165,4.5519031,1.3310518,-435.11799,558.3993)"
       gradientUnits="userSpaceOnUse" />
    <filter
       id="M">
      <feGaussianBlur
         stdDeviation="0.58297"
         id="j" />
    </filter>
    <linearGradient
       xlink:href="#O"
       x1="54.209999"
       y1="9.8979998"
       x2="5.9310002"
       y2="55.560001"
       id="N"
       gradientUnits="userSpaceOnUse" />
    <linearGradient
       id="O">
      <stop
         id="k"
         stop-color="#e9e9e9" />
      <stop
         offset="1"
         id="l"
         stop-color="#d7d7d7" />
    </linearGradient>
    <linearGradient
       xlink:href="#O"
       gradientTransform="translate(226.89963,134.22817)"
       y2="55.560001"
       x2="5.9310002"
       y1="9.8979998"
       x1="54.209999"
       gradientUnits="userSpaceOnUse"
       id="P" />
    <linearGradient
       xlink:href="#7"
       gradientTransform="translate(1.4382054,-2.5648401)"
       gradientUnits="userSpaceOnUse"
       x2="99.32"
       x1="25.768999"
       id="Q" />
  </defs>
  <g
     id="g66"
     transform="scale(0.83999999)">
    <path
       d="M 20.09375,4.1185004 V 122.1185 H 108.9375 V 35.96225 l -0.59375,-0.625 c 0.21045,0.144391 0.41688,0.302162 0.625,0.4375 L 78.09375,4.1497504 c 0.05654,0.079597 0.09993,0.1703021 0.15625,0.25 L 78,4.1185004 Z"
       id="1"
       transform="matrix(0.9376465,0,0,0.94163374,-10.507501,7.2331594)"
       opacity="0.809"
       filter="url(#F)" />
    <path
       d="M 8.3333326,10.294052 V 120.93634 H 91.637363 V 40.152233 L 62.628925,10.294052 Z"
       id="2"
       fill="url(#I)"
       style="fill:url(#I);stroke-width:0.969496" />
    <path
       id="3"
       d="m 81.698039,28.309502 0.135161,-8.351 C 81.901124,13.359407 80.956142,8.4107397 77.785779,3.9471419 L 80.362343,3.9159389 107.86271,29.53084 c -4.06802,-2.645393 -9.621189,-0.791242 -16.861906,-1.025606 z"
       transform="matrix(0.98508994,0,0,1.0783128,-15.724277,7.4942706)"
       opacity="0.505"
       fill="url(#G)"
       filter="url(#E)"
       style="fill:url(#G)" />
    <path
       d="m 68.176412,32.853292 0.126734,-7.830286 C 68.366832,18.835388 65.693674,14.517483 62.720994,10.332207 L 91.676667,39.9873 c -3.814365,-2.480444 -7.988315,-6.73073 -14.77755,-6.95048 z"
       id="4"
       fill="#eeeeee"
       style="stroke-width:0.969496" />
    <path
       id="5"
       d="m 68.176412,32.853292 0.126734,-7.830286 C 68.366832,18.835388 65.693674,14.517483 62.720994,10.332207 L 91.676667,39.9873 c -3.814365,-2.480444 -7.988315,-6.73073 -14.77755,-6.95048 z"
       fill="url(#H)"
       style="fill:url(#H);stroke-width:0.969496" />
    <path
       d="m 49.985346,49.567121 c -17.152495,0 -31.063981,13.908898 -31.063981,31.063982 0,13.725102 8.899831,25.368917 21.245174,29.477127 1.550612,0.28735 2.052812,-0.67564 2.052812,-1.49366 v -5.78308 c -8.640964,1.87938 -10.440087,-3.665544 -10.440087,-3.665544 -1.413411,-3.590479 -3.45069,-4.545697 -3.45069,-4.545697 -2.819056,-1.928555 0.214859,-1.887136 0.214859,-1.887136 3.119341,0.217448 4.760555,3.202179 4.760555,3.202179 2.769872,4.747608 7.266384,3.375618 9.03962,2.580899 0.276986,-2.006215 1.082061,-3.378209 1.972563,-4.152219 -6.898794,-0.789543 -14.152234,-3.453279 -14.152234,-15.353374 0,-3.393739 1.214085,-6.163611 3.199591,-8.33809 -0.320995,-0.784366 -1.384936,-3.945126 0.302874,-8.2216 0,0 2.609374,-0.833551 8.545184,3.184058 2.477352,-0.688585 5.133323,-1.032877 7.77376,-1.045821 2.640439,0.01294 5.298999,0.357236 7.781528,1.045821 5.930632,-4.017609 8.534829,-3.184058 8.534829,-3.184058 1.690398,4.279063 0.626457,7.439823 0.305463,8.2216 1.993273,2.174479 3.197001,4.946939 3.197001,8.33809 0,11.931158 -7.266383,14.558653 -14.183296,15.327487 1.113126,0.962984 2.130472,2.852709 2.130472,5.752015 v 8.52447 c 0,0.82578 0.497023,1.79654 2.07352,1.49107 12.334989,-4.11339 21.224467,-15.754612 21.224467,-29.474537 0,-17.155084 -13.908899,-31.063982 -31.063984,-31.063982 z"
       id="path2"
       style="fill:#333333;stroke-width:2.58867" />
  </g>
</svg>
