<?xml version="1.0" encoding="UTF-8" standalone="no"?>
<svg
   xmlns:dc="http://purl.org/dc/elements/1.1/"
   xmlns:cc="http://creativecommons.org/ns#"
   xmlns:rdf="http://www.w3.org/1999/02/22-rdf-syntax-ns#"
   xmlns:svg="http://www.w3.org/2000/svg"
   xmlns="http://www.w3.org/2000/svg"
   xmlns:sodipodi="http://sodipodi.sourceforge.net/DTD/sodipodi-0.dtd"
   xmlns:inkscape="http://www.inkscape.org/namespaces/inkscape"
   width="48"
   height="48"
   viewBox="0 0 48 48"
   version="1.1"
   id="svg4"
   sodipodi:docname="github.svg"
   inkscape:version="1.0.2 (e86c870879, 2021-01-15)">
  <metadata
     id="metadata10">
    <rdf:RDF>
      <cc:Work
         rdf:about="">
        <dc:format>image/svg+xml</dc:format>
        <dc:type
           rdf:resource="http://purl.org/dc/dcmitype/StillImage" />
        <dc:title />
      </cc:Work>
    </rdf:RDF>
  </metadata>
  <defs
     id="defs8" />
  <sodipodi:namedview
     pagecolor="#ffffff"
     bordercolor="#666666"
     borderopacity="1"
     objecttolerance="10"
     gridtolerance="10"
     guidetolerance="10"
     inkscape:pageopacity="0"
     inkscape:pageshadow="2"
     inkscape:window-width="1920"
     inkscape:window-height="1029"
     id="namedview6"
     showgrid="false"
     fit-margin-top="0"
     fit-margin-left="0"
     fit-margin-right="0"
     fit-margin-bottom="0"
     inkscape:zoom="8.7291665"
     inkscape:cx="1.0883051"
     inkscape:cy="24"
     inkscape:window-x="0"
     inkscape:window-y="27"
     inkscape:window-maximized="1"
     inkscape:current-layer="svg4"
     inkscape:document-rotation="0" />
  <g
     id="g838">
    <rect
       style="fill:none;stroke-width:2.16244"
       id="rect7"
       width="48"
       height="48"
       x="-4.5581055e-07"
       y="-1.8627929e-08" />
    <path
       d="m 24,0.591767 c -13.252,0 -24,10.746 -24,24 0,10.604 6.876,19.600001 16.414,22.774001 1.198,0.222 1.586,-0.522 1.586,-1.154 v -4.468 c -6.676,1.452 -8.066,-2.832 -8.066,-2.832 -1.092,-2.774001 -2.666,-3.512001 -2.666,-3.512001 -2.178,-1.49 0.166,-1.458 0.166,-1.458 2.41,0.168 3.678,2.474 3.678,2.474 2.14,3.668001 5.614,2.608001 6.984,1.994001 0.214,-1.55 0.836,-2.610001 1.524,-3.208001 -5.33,-0.61 -10.934,-2.668 -10.934,-11.862 0,-2.622 0.938,-4.762 2.472,-6.442 -0.248,-0.606 -1.07,-3.048 0.234,-6.352 0,0 2.016,-0.6439999 6.602,2.46 1.914,-0.532 3.966,-0.798 6.006,-0.808 2.04,0.01 4.094,0.276 6.012,0.808 4.582,-3.1039999 6.594,-2.46 6.594,-2.46 1.306,3.306 0.484,5.748 0.236,6.352 1.54,1.68 2.47,3.822 2.47,6.442 0,9.218 -5.614,11.248 -10.958,11.842 0.86,0.744 1.646,2.204001 1.646,4.444001 v 6.586 c 0,0.638 0.384,1.388 1.602,1.152 C 41.132,44.185768 48,35.191767 48,24.591767 c 0,-13.254 -10.746,-24 -24,-24 z"
       id="path2"
       style="fill:#959da5;stroke-width:2;fill-opacity:1" />
  </g>
</svg>
