<?xml version="1.0" encoding="UTF-8" standalone="no"?>
<svg
   xmlns:dc="http://purl.org/dc/elements/1.1/"
   xmlns:cc="http://creativecommons.org/ns#"
   xmlns:rdf="http://www.w3.org/1999/02/22-rdf-syntax-ns#"
   xmlns:svg="http://www.w3.org/2000/svg"
   xmlns="http://www.w3.org/2000/svg"
   xmlns:sodipodi="http://sodipodi.sourceforge.net/DTD/sodipodi-0.dtd"
   xmlns:inkscape="http://www.inkscape.org/namespaces/inkscape"
   width="32"
   height="32"
   viewBox="0 0 32 32"
   version="1.1"
   id="svg4"
   sodipodi:docname="github.svg"
   inkscape:version="1.0.2 (e86c870879, 2021-01-15)">
  <metadata
     id="metadata10">
    <rdf:RDF>
      <cc:Work
         rdf:about="">
        <dc:format>image/svg+xml</dc:format>
        <dc:type
           rdf:resource="http://purl.org/dc/dcmitype/StillImage" />
        <dc:title />
      </cc:Work>
    </rdf:RDF>
  </metadata>
  <defs
     id="defs8" />
  <sodipodi:namedview
     pagecolor="#ffffff"
     bordercolor="#666666"
     borderopacity="1"
     objecttolerance="10"
     gridtolerance="10"
     guidetolerance="10"
     inkscape:pageopacity="0"
     inkscape:pageshadow="2"
     inkscape:window-width="1920"
     inkscape:window-height="1029"
     id="namedview6"
     showgrid="false"
     fit-margin-top="0"
     fit-margin-left="0"
     fit-margin-right="0"
     fit-margin-bottom="0"
     inkscape:zoom="18.517359"
     inkscape:cx="16"
     inkscape:cy="17.527446"
     inkscape:window-x="0"
     inkscape:window-y="27"
     inkscape:window-maximized="1"
     inkscape:current-layer="svg4"
     inkscape:document-rotation="0" />
  <g
     id="g20">
    <rect
       style="fill:none;stroke:none;stroke-width:0.546507"
       id="rect9"
       width="32"
       height="32"
       x="-1.8017577e-07"
       y="-4.5732116e-09" />
    <rect
       style="fill:none;stroke-width:0.991118"
       id="rect7"
       width="22"
       height="22"
       x="5"
       y="5" />
    <path
       d="m 16,5.2712266 c -6.0738334,0 -11,4.9252504 -11,11.0000004 0,4.860166 3.1515,8.983333 7.523083,10.438083 C 13.072167,26.81106 13.25,26.47006 13.25,26.180394 V 24.13256 c -3.059833,0.6655 -3.6969167,-1.298 -3.6969167,-1.298 -0.5005,-1.271417 -1.2219167,-1.609667 -1.2219167,-1.609667 -0.99825,-0.682916 0.076083,-0.66825 0.076083,-0.66825 1.1045833,0.077 1.6857504,1.133917 1.6857504,1.133917 0.980833,1.681167 2.573083,1.195334 3.201,0.913917 0.09808,-0.710417 0.383167,-1.19625 0.6985,-1.470334 -2.442917,-0.279583 -5.0114171,-1.222833 -5.0114171,-5.43675 0,-1.20175 0.4299167,-2.182583 1.1330001,-2.952583 -0.113666,-0.27775 -0.4904168,-1.397 0.10725,-2.9113334 0,0 0.924,-0.2951666 3.025917,1.1275004 C 14.1245,10.717143 15.065,10.595227 16,10.590643 c 0.935,0.0046 1.876417,0.1265 2.7555,0.370334 2.100083,-1.422667 3.02225,-1.1275004 3.02225,-1.1275004 0.598583,1.5152504 0.221833,2.6345004 0.108167,2.9113334 0.705833,0.77 1.132083,1.75175 1.132083,2.952583 0,4.224917 -2.573083,5.155334 -5.022417,5.427584 0.394167,0.341 0.754417,1.010167 0.754417,2.036833 v 3.018584 c 0,0.292416 0.176,0.636166 0.73425,0.528 C 23.852167,25.25181 27,21.12956 27,16.271227 27,10.196477 22.07475,5.2712266 16,5.2712266 Z"
       id="path2"
       style="fill:#ffffff;fill-opacity:1;stroke-width:0.916667" />
  </g>
</svg>
