<?xml version="1.0" encoding="UTF-8" standalone="no"?>
<svg
   xmlns:dc="http://purl.org/dc/elements/1.1/"
   xmlns:cc="http://creativecommons.org/ns#"
   xmlns:rdf="http://www.w3.org/1999/02/22-rdf-syntax-ns#"
   xmlns:svg="http://www.w3.org/2000/svg"
   xmlns="http://www.w3.org/2000/svg"
   xmlns:sodipodi="http://sodipodi.sourceforge.net/DTD/sodipodi-0.dtd"
   xmlns:inkscape="http://www.inkscape.org/namespaces/inkscape"
   width="48"
   height="48"
   viewBox="0 0 48 48"
   version="1.1"
   id="svg4"
   sodipodi:docname="link.svg"
   inkscape:version="1.0.2 (e86c870879, 2021-01-15)">
  <metadata
     id="metadata10">
    <rdf:RDF>
      <cc:Work
         rdf:about="">
        <dc:format>image/svg+xml</dc:format>
        <dc:type
           rdf:resource="http://purl.org/dc/dcmitype/StillImage" />
        <dc:title />
      </cc:Work>
    </rdf:RDF>
  </metadata>
  <defs
     id="defs8" />
  <sodipodi:namedview
     pagecolor="#ffffff"
     bordercolor="#666666"
     borderopacity="1"
     objecttolerance="10"
     gridtolerance="10"
     guidetolerance="10"
     inkscape:pageopacity="0"
     inkscape:pageshadow="2"
     inkscape:window-width="1920"
     inkscape:window-height="1029"
     id="namedview6"
     showgrid="false"
     fit-margin-top="0"
     fit-margin-left="0"
     fit-margin-right="0"
     fit-margin-bottom="0"
     inkscape:zoom="17.458333"
     inkscape:cx="24"
     inkscape:cy="24"
     inkscape:window-x="0"
     inkscape:window-y="27"
     inkscape:window-maximized="1"
     inkscape:current-layer="svg4"
     inkscape:document-rotation="0" />
  <g
     id="g838">
    <rect
       style="fill:none;stroke-width:2.16244"
       id="rect7"
       width="48"
       height="48"
       x="1.4904785e-07"
       y="-3.3959961e-07" />
    <path
       d="m 12.375338,17.436455 c 0.87806,-0.877972 1.852126,-1.60195 2.888196,-2.173933 5.774391,-3.1819 13.178892,-1.489953 16.891143,4.137872 l -4.492304,4.489859 c -1.288087,-2.937908 -4.486304,-4.609856 -7.668519,-3.897878 -1.198081,0.267992 -2.336158,0.865973 -3.266221,1.795944 L 8.11905,30.40005 c -2.614177,2.613919 -2.614177,6.865786 0,9.479704 2.614177,2.613918 6.866465,2.613918 9.480642,0 l 2.65418,-2.653917 c 2.414163,0.95797 5.002338,1.339958 7.558511,1.149964 l -5.858397,5.857817 c -5.022339,5.021843 -13.164891,5.021843 -18.187231,0 -5.02234,-5.021844 -5.02234,-13.163589 0,-18.185432 z M 26.048264,3.764882 20.189867,9.6226988 c 2.554173,-0.191994 5.144348,0.1919939 7.558512,1.1479642 l 2.652179,-2.651917 c 2.614177,-2.613918 6.866465,-2.613918 9.480642,0 2.614177,2.613918 2.614177,6.865785 0,9.479704 l -8.610583,8.609731 c -2.622177,2.621918 -6.880466,2.599919 -9.480641,0 -0.606041,-0.605981 -1.128077,-1.359958 -1.454099,-2.101934 l -4.492304,4.48986 c 0.472032,0.715977 0.962065,1.333958 1.592108,1.963939 1.62411,1.623949 3.69225,2.83391 6.072411,3.407892 3.084208,0.741978 6.388432,0.33199 9.226624,-1.233961 1.03607,-0.571982 2.010136,-1.295959 2.888196,-2.173931 l 8.608583,-8.609732 c 5.02434,-5.021843 5.02434,-13.163589 0.002,-18.185432 -5.02234,-5.019843 -13.162891,-5.019843 -18.185231,0 z"
       id="path2"
       style="fill:#959da5;stroke-width:2.00004;fill-opacity:1" />
  </g>
</svg>
