<?xml version="1.0" encoding="UTF-8" standalone="no"?>
<svg
   xmlns:dc="http://purl.org/dc/elements/1.1/"
   xmlns:cc="http://creativecommons.org/ns#"
   xmlns:rdf="http://www.w3.org/1999/02/22-rdf-syntax-ns#"
   xmlns:svg="http://www.w3.org/2000/svg"
   xmlns="http://www.w3.org/2000/svg"
   xmlns:sodipodi="http://sodipodi.sourceforge.net/DTD/sodipodi-0.dtd"
   xmlns:inkscape="http://www.inkscape.org/namespaces/inkscape"
   width="32"
   height="32"
   viewBox="0 0 32 32"
   version="1.1"
   id="svg4"
   sodipodi:docname="link.svg"
   inkscape:version="1.0.2 (e86c870879, 2021-01-15)">
  <metadata
     id="metadata10">
    <rdf:RDF>
      <cc:Work
         rdf:about="">
        <dc:format>image/svg+xml</dc:format>
        <dc:type
           rdf:resource="http://purl.org/dc/dcmitype/StillImage" />
        <dc:title />
      </cc:Work>
    </rdf:RDF>
  </metadata>
  <defs
     id="defs8" />
  <sodipodi:namedview
     pagecolor="#ffffff"
     bordercolor="#666666"
     borderopacity="1"
     objecttolerance="10"
     gridtolerance="10"
     guidetolerance="10"
     inkscape:pageopacity="0"
     inkscape:pageshadow="2"
     inkscape:window-width="1920"
     inkscape:window-height="1029"
     id="namedview6"
     showgrid="false"
     fit-margin-top="0"
     fit-margin-left="0"
     fit-margin-right="0"
     fit-margin-bottom="0"
     inkscape:zoom="13.09375"
     inkscape:cx="14.625298"
     inkscape:cy="16"
     inkscape:window-x="0"
     inkscape:window-y="27"
     inkscape:window-maximized="1"
     inkscape:current-layer="svg4"
     inkscape:document-rotation="0"
     inkscape:snap-global="false" />
  <g
     id="g20">
    <rect
       style="fill:none;stroke:none;stroke-width:0.512034"
       id="rect26"
       width="32"
       height="32"
       x="-4.3579101e-07"
       y="2.5878906e-08" />
    <rect
       style="fill:none;stroke-width:0.991118"
       id="rect7"
       width="22"
       height="22"
       x="4.9999995"
       y="5" />
    <path
       d="m 10.672029,12.991709 c 0.402445,-0.402404 0.848892,-0.734227 1.323757,-0.996386 2.646596,-1.458371 6.040325,-0.682895 7.741774,1.896524 l -2.058973,2.057852 c -0.590373,-1.346541 -2.056223,-2.11285 -3.514738,-1.786527 -0.54912,0.12283 -1.070739,0.396904 -1.497018,0.823141 l -3.9456002,3.947043 c -1.1981644,1.198046 -1.1981644,3.146819 0,4.344865 1.1981645,1.198045 3.1471302,1.198045 4.3452942,0 l 1.216499,-1.216379 c 1.106492,0.43907 2.292738,0.614147 3.464318,0.527067 l -2.685099,2.684833 c -2.301905,2.301678 -6.0339082,2.301678 -8.335814,0 -2.3019059,-2.301679 -2.3019059,-6.033312 0,-8.33499 z m 6.266758,-6.266138 -2.685098,2.6848327 c 1.170662,-0.087997 2.357826,0.087997 3.464318,0.5261502 L 18.933589,8.721092 c 1.198164,-1.1980458 3.147129,-1.1980458 4.345294,0 1.198164,1.1980457 1.198164,3.146818 0,4.344864 l -3.946517,3.946127 c -1.201831,1.201712 -3.153547,1.19163 -4.345294,0 -0.277769,-0.277741 -0.517035,-0.623314 -0.666462,-0.963386 l -2.058973,2.057852 c 0.216348,0.328156 0.440947,0.611397 0.729716,0.900139 0.744384,0.74431 1.692282,1.298875 2.783189,1.56195 1.413595,0.340073 2.928031,0.152162 4.228869,-0.565565 0.474865,-0.262159 0.921312,-0.593981 1.323756,-0.996385 l 3.945601,-3.946127 c 2.302822,-2.301678 2.302822,-6.033312 9.17e-4,-8.33499 -2.301906,-2.3007614 -6.032992,-2.3007614 -8.334898,0 z"
       id="path2"
       style="fill:#ffffff;fill-opacity:1;stroke-width:0.916685" />
  </g>
</svg>
