<?xml version="1.0" encoding="UTF-8" standalone="no"?>
<svg
   xmlns:dc="http://purl.org/dc/elements/1.1/"
   xmlns:cc="http://creativecommons.org/ns#"
   xmlns:rdf="http://www.w3.org/1999/02/22-rdf-syntax-ns#"
   xmlns:svg="http://www.w3.org/2000/svg"
   xmlns="http://www.w3.org/2000/svg"
   xmlns:sodipodi="http://sodipodi.sourceforge.net/DTD/sodipodi-0.dtd"
   xmlns:inkscape="http://www.inkscape.org/namespaces/inkscape"
   width="48"
   height="48"
   viewBox="0 0 48 48"
   version="1.1"
   id="svg4"
   sodipodi:docname="iconmonstr-link-1.svg"
   inkscape:version="1.0.2 (e86c870879, 2021-01-15)">
  <metadata
     id="metadata10">
    <rdf:RDF>
      <cc:Work
         rdf:about="">
        <dc:format>image/svg+xml</dc:format>
        <dc:type
           rdf:resource="http://purl.org/dc/dcmitype/StillImage" />
        <dc:title></dc:title>
      </cc:Work>
    </rdf:RDF>
  </metadata>
  <defs
     id="defs8" />
  <sodipodi:namedview
     pagecolor="#ffffff"
     bordercolor="#666666"
     borderopacity="1"
     objecttolerance="10"
     gridtolerance="10"
     guidetolerance="10"
     inkscape:pageopacity="0"
     inkscape:pageshadow="2"
     inkscape:window-width="1920"
     inkscape:window-height="1029"
     id="namedview6"
     showgrid="false"
     fit-margin-top="0"
     fit-margin-left="0"
     fit-margin-right="0"
     fit-margin-bottom="0"
     inkscape:zoom="17.458333"
     inkscape:cx="24"
     inkscape:cy="24"
     inkscape:window-x="0"
     inkscape:window-y="27"
     inkscape:window-maximized="1"
     inkscape:current-layer="svg4" />
  <g
     id="g23"
     transform="translate(30.849188,19.238979)">
    <rect
       style="fill:none;stroke-width:2.16244"
       id="rect7"
       width="48"
       height="48"
       x="-30.849188"
       y="-19.238979" />
    <path
       d="m -18.47385,-1.8025238 c 0.87806,-0.8779725 1.852126,-1.6019499 2.888196,-2.1739328 C -9.8112632,-7.1583571 -2.4067624,-5.46641 1.3054891,0.16141476 L -3.1868152,4.6512744 C -4.4749024,1.7133662 -7.673119,0.04141846 -10.855334,0.75339626 -12.053415,1.0213879 -13.191492,1.6193692 -14.121555,2.5493402 l -8.608583,8.6117308 c -2.614177,2.613919 -2.614177,6.865786 0,9.479704 2.614177,2.613918 6.866465,2.613918 9.480642,0 l 2.65418,-2.653917 c 2.4141626,0.95797 5.0023379,1.339958 7.558511,1.149964 l -5.8583968,5.857817 c -5.0223392,5.021843 -13.1648912,5.021843 -18.1872312,0 -5.02234,-5.021844 -5.02234,-13.163589 0,-18.1854321 z m 13.6729255,-13.6715732 -5.8583965,5.8578168 c 2.5541727,-0.191994 5.1443481,0.1919939 7.5585116,1.1479641 l 2.65217963,-2.6519169 c 2.61417687,-2.613918 6.86646487,-2.613918 9.48064187,0 2.6141769,2.6139181 2.6141769,6.8657851 0,9.4797041 L 0.42142913,6.9692019 c -2.62217753,2.6219178 -6.88046593,2.5999188 -9.48064133,0 -0.6060411,-0.605981 -1.1280768,-1.3599575 -1.4540988,-2.1019343 l -4.492304,4.4898601 c 0.472032,0.7159773 0.962065,1.3339583 1.592108,1.9639393 1.62411,1.623949 3.6922499,2.83391 6.0724105,3.407892 3.0842088,0.741978 6.38843263,0.33199 9.2266246,-1.233961 1.03607,-0.571982 2.010136,-1.295959 2.888196,-2.173931 L 13.382307,2.711335 c 5.02434,-5.0218429 5.02434,-13.163589 0.002,-18.185432 -5.0223399,-5.019843 -13.16289087,-5.019843 -18.1852315,0 z"
       id="path2"
       style="fill:#4d4d4d;stroke-width:2.00004" />
  </g>
</svg>
