<?xml version="1.0" encoding="UTF-8" standalone="no"?>
<svg
   xmlns:dc="http://purl.org/dc/elements/1.1/"
   xmlns:cc="http://creativecommons.org/ns#"
   xmlns:rdf="http://www.w3.org/1999/02/22-rdf-syntax-ns#"
   xmlns:svg="http://www.w3.org/2000/svg"
   xmlns="http://www.w3.org/2000/svg"
   xmlns:xlink="http://www.w3.org/1999/xlink"
   xmlns:sodipodi="http://sodipodi.sourceforge.net/DTD/sodipodi-0.dtd"
   xmlns:inkscape="http://www.inkscape.org/namespaces/inkscape"
   width="1920"
   height="1059.3539"
   viewBox="0 0 508 280.28739"
   version="1.1"
   id="svg8"
   inkscape:version="1.0.2 (e86c870879, 2021-01-15)"
   sodipodi:docname="header.svg">
  <defs
     id="defs2">
    <linearGradient
       inkscape:collect="always"
       id="linearGradient176">
      <stop
         style="stop-color:#aa0000;stop-opacity:1"
         offset="0"
         id="stop172" />
      <stop
         style="stop-color:#800000;stop-opacity:1"
         offset="1"
         id="stop174" />
    </linearGradient>
    <linearGradient
       inkscape:collect="always"
       id="linearGradient160">
      <stop
         style="stop-color:#ff0000;stop-opacity:1;"
         offset="0"
         id="stop156" />
      <stop
         style="stop-color:#aa0000;stop-opacity:1"
         offset="1"
         id="stop158" />
    </linearGradient>
    <linearGradient
       inkscape:collect="always"
       id="linearGradient152">
      <stop
         style="stop-color:#ff0000;stop-opacity:1;"
         offset="0"
         id="stop148" />
      <stop
         style="stop-color:#550000;stop-opacity:1"
         offset="1"
         id="stop150" />
    </linearGradient>
    <linearGradient
       inkscape:collect="always"
       xlink:href="#linearGradient152"
       id="linearGradient154"
       x1="153.42516"
       y1="86.550598"
       x2="234.75346"
       y2="85.957085"
       gradientUnits="userSpaceOnUse"
       gradientTransform="matrix(4.5057682,0,0,4.5057682,-829.94612,-375.82027)" />
    <linearGradient
       inkscape:collect="always"
       xlink:href="#linearGradient160"
       id="linearGradient162"
       x1="228.168"
       y1="94.226692"
       x2="251.13503"
       y2="102.51037"
       gradientUnits="userSpaceOnUse"
       gradientTransform="matrix(4.5057682,0,0,4.5057682,-829.94713,-375.82027)" />
    <linearGradient
       inkscape:collect="always"
       xlink:href="#linearGradient176"
       id="linearGradient178"
       x1="235.71332"
       y1="106.27121"
       x2="179.91742"
       y2="94.242088"
       gradientUnits="userSpaceOnUse"
       gradientTransform="matrix(4.5057682,0,0,4.5057682,-829.94613,-375.82027)" />
  </defs>
  <sodipodi:namedview
     id="base"
     pagecolor="#ffffff"
     bordercolor="#666666"
     borderopacity="1.0"
     inkscape:pageopacity="0.0"
     inkscape:pageshadow="2"
     inkscape:zoom="0.25172265"
     inkscape:cx="959.99998"
     inkscape:cy="529.67696"
     inkscape:document-units="mm"
     inkscape:current-layer="layer1"
     inkscape:document-rotation="0"
     showgrid="false"
     inkscape:snap-global="false"
     inkscape:window-width="1920"
     inkscape:window-height="1029"
     inkscape:window-x="0"
     inkscape:window-y="27"
     inkscape:window-maximized="1"
     fit-margin-top="0"
     fit-margin-left="0"
     fit-margin-right="0"
     fit-margin-bottom="0"
     units="px" />
  <metadata
     id="metadata5">
    <rdf:RDF>
      <cc:Work
         rdf:about="">
        <dc:format>image/svg+xml</dc:format>
        <dc:type
           rdf:resource="http://purl.org/dc/dcmitype/StillImage" />
        <dc:title />
      </cc:Work>
    </rdf:RDF>
  </metadata>
  <g
     inkscape:label="Layer 1"
     inkscape:groupmode="layer"
     id="layer1"
     transform="translate(149.80785,127.89707)">
    <g
       id="g59">
      <path
         id="rect76"
         style="fill:#1a1a1a;stroke:none;stroke-width:2.39359"
         d="M -149.80757,-127.89706 V 45.49574 C 53.772057,19.258948 176.03438,123.22941 358.19087,91.447112 V -127.89706 Z" />
      <path
         id="path280"
         style="fill:#ffffff;stroke:none;stroke-width:1.97739"
         d="M -149.80758,152.39031 V 34.054075 C 53.772034,51.959995 286.95658,124.09729 358.19084,88.08181 v 64.3085 z"
         sodipodi:nodetypes="ccccc" />
      <path
         style="fill:url(#linearGradient154);fill-opacity:1;stroke:none;stroke-width:1.19215px;stroke-linecap:butt;stroke-linejoin:miter;stroke-opacity:1"
         d="m -149.80753,58.195117 9.6e-4,-61.605652 C -97.547592,-25.430945 -36.643359,-26.469709 30.317313,-9.4474804 134.71132,19.133297 207.75104,94.279503 353.42027,99.373184 l -1.006,-2.289651 C 295.67421,124.84199 237.24715,133.47707 177.91294,115.64838 82.9049,86.924332 -5.5760869,21.720964 -93.798623,20.73102 c -16.927627,0.009 -35.431107,33.551729 -56.008947,37.464097 z"
         id="path128"
         sodipodi:nodetypes="ccccccccc" />
      <path
         style="fill:url(#linearGradient178);fill-opacity:1;stroke:none;stroke-width:1.19215px;stroke-linecap:butt;stroke-linejoin:miter;stroke-opacity:1"
         d="M -149.80785,66.176973 V 40.977103 C -100.00411,13.857258 -42.472661,2.3356576 25.851276,12.598563 113.69654,26.40922 186.54833,74.034356 264.62978,88.376586 c 25.02134,4.38204 54.25737,5.468831 93.56236,0.294227 v 10.09247 C 304.50163,132.03928 245.99703,134.18484 185.18119,122.35932 87.78315,103.24859 -6.7565631,47.189584 -94.638373,54.99845 c -16.842467,1.696142 -35.084077,5.234482 -55.169477,11.178523 z"
         id="path78"
         sodipodi:nodetypes="ccccccccc" />
      <path
         style="fill:#ff0000;stroke:none;stroke-width:1.19215px;stroke-linecap:butt;stroke-linejoin:miter;stroke-opacity:1"
         d="m -149.80758,139.31313 0.001,-64.995063 C -84.384496,47.527368 -24.382447,64.17378 11.923997,73.242508 -58.58257,56.190332 -109.71208,85.650736 -149.80758,139.31313 Z"
         id="path126"
         sodipodi:nodetypes="cccc" />
      <g
         aria-label="Leandro Sciola"
         id="text144"
         style="font-style:normal;font-weight:normal;font-size:6.87562px;line-height:1.25;font-family:sans-serif;fill:#ffffff;fill-opacity:1;stroke:none;stroke-width:0.171891"
         transform="matrix(4.5057682,0,0,4.5057682,-829.94613,-375.82027)">
        <path
           d="m 206.7844,75.801994 q 0.055,0 0.0963,0.04125 0.0412,0.04125 0.0412,0.09626 0,0.06188 -0.0412,0.103135 -0.0413,0.03438 -0.0963,0.03438 h -2.52335 q -0.0619,0 -0.10314,-0.04125 -0.0344,-0.04125 -0.0344,-0.09626 V 71.4016 q 0,-0.055 0.0413,-0.09626 0.0412,-0.04125 0.10313,-0.04125 0.0619,0 0.10314,0.04125 0.0412,0.04125 0.0412,0.09626 v 4.400397 z"
           style="font-style:normal;font-variant:normal;font-weight:normal;font-stretch:normal;font-family:'Quicksand Light';-inkscape-font-specification:'Quicksand Light, ';fill:#ffffff;stroke-width:0.171891"
           id="path180" />
        <path
           d="m 210.31159,75.251944 q 0.0481,0 0.0825,0.04125 0.0344,0.03438 0.0344,0.08251 0,0.04813 -0.0275,0.08251 -0.22689,0.302527 -0.5638,0.495045 -0.3369,0.192517 -0.72194,0.192517 -0.51567,0 -0.91446,-0.22002 -0.39878,-0.22002 -0.62568,-0.625681 -0.22002,-0.405662 -0.22002,-0.94196 0,-0.55005 0.21315,-0.962587 0.22002,-0.419413 0.57755,-0.639433 0.35753,-0.22002 0.76319,-0.22002 0.40566,0 0.74945,0.178767 0.35065,0.17189 0.57067,0.522547 0.22002,0.350656 0.23377,0.866328 0,0.055 -0.0412,0.103134 -0.0413,0.04125 -0.0963,0.04125 h -2.70212 v 0.08938 q 0,0.426288 0.17189,0.783821 0.17189,0.350656 0.5088,0.556925 0.3369,0.206268 0.81132,0.206268 0.33003,0 0.61881,-0.158139 0.29565,-0.165015 0.46066,-0.412537 0.0481,-0.06188 0.11689,-0.06188 z m -1.40263,-2.440845 q -0.25439,0 -0.52254,0.137513 -0.26128,0.130636 -0.46755,0.398786 -0.19939,0.261273 -0.26815,0.639432 h 2.53023 v -0.06188 q -0.0344,-0.350657 -0.22689,-0.598179 -0.18564,-0.254398 -0.46754,-0.385035 -0.27503,-0.130637 -0.57756,-0.130637 z"
           style="font-style:normal;font-variant:normal;font-weight:normal;font-stretch:normal;font-family:'Quicksand Light';-inkscape-font-specification:'Quicksand Light, ';fill:#ffffff;stroke-width:0.171891"
           id="path182" />
        <path
           d="m 214.20318,72.646084 q 0.0619,0 0.0963,0.04125 0.0412,0.04125 0.0412,0.09626 v 3.155909 q 0,0.05501 -0.0412,0.09626 -0.0413,0.04125 -0.0963,0.04125 -0.0619,0 -0.10314,-0.04125 -0.0344,-0.04125 -0.0344,-0.09626 v -0.618805 q -0.1719,0.350656 -0.52943,0.591303 -0.35753,0.233771 -0.79069,0.233771 -0.45379,0 -0.8182,-0.233771 -0.36441,-0.240647 -0.57068,-0.653184 -0.20627,-0.419413 -0.20627,-0.935084 0,-0.508796 0.20627,-0.914458 0.21315,-0.412537 0.57755,-0.639432 0.36441,-0.233772 0.81133,-0.233772 0.44691,0 0.80444,0.233772 0.35754,0.233771 0.51568,0.625681 v -0.61193 q 0,-0.055 0.0344,-0.09626 0.0413,-0.04125 0.10314,-0.04125 z m -1.44388,3.238417 q 0.37816,0 0.68068,-0.199393 0.30941,-0.206268 0.4813,-0.5638 0.17189,-0.357533 0.17189,-0.797572 0,-0.419413 -0.17189,-0.77007 -0.17189,-0.350656 -0.4813,-0.550049 -0.30252,-0.206269 -0.68068,-0.206269 -0.37816,0 -0.68756,0.199393 -0.30253,0.192517 -0.47442,0.543174 -0.17189,0.343781 -0.17189,0.783821 0,0.440039 0.17189,0.797572 0.17189,0.357532 0.47442,0.5638 0.30252,0.199393 0.68756,0.199393 z"
           style="font-style:normal;font-variant:normal;font-weight:normal;font-stretch:normal;font-family:'Quicksand Light';-inkscape-font-specification:'Quicksand Light, ';fill:#ffffff;stroke-width:0.171891"
           id="path184" />
        <path
           d="m 217.0428,72.536074 q 0.61193,0 0.92134,0.364408 0.3094,0.357533 0.3094,0.935085 v 2.103939 q 0,0.05501 -0.0412,0.09626 -0.0413,0.04125 -0.0963,0.04125 -0.0619,0 -0.10314,-0.04125 -0.0344,-0.04125 -0.0344,-0.09626 v -2.076437 q 0,-0.467542 -0.24753,-0.763194 -0.24064,-0.302527 -0.73569,-0.302527 -0.30253,0 -0.59818,0.144388 -0.28877,0.144388 -0.47442,0.39191 -0.18564,0.247523 -0.18564,0.529423 v 2.076437 q 0,0.05501 -0.0412,0.09626 -0.0412,0.04125 -0.0963,0.04125 -0.0619,0 -0.10313,-0.04125 -0.0344,-0.04125 -0.0344,-0.09626 v -3.155909 q 0,-0.055 0.0412,-0.09626 0.0413,-0.04125 0.0963,-0.04125 0.0619,0 0.0963,0.04125 0.0412,0.04125 0.0412,0.09626 v 0.460666 q 0.1994,-0.309403 0.55693,-0.508796 0.36441,-0.199393 0.72881,-0.199393 z"
           style="font-style:normal;font-variant:normal;font-weight:normal;font-stretch:normal;font-family:'Quicksand Light';-inkscape-font-specification:'Quicksand Light, ';fill:#ffffff;stroke-width:0.171891"
           id="path186" />
        <path
           d="m 222.22701,70.98906 q 0.0619,0 0.0963,0.04125 0.0412,0.04125 0.0412,0.09626 v 4.812934 q 0,0.05501 -0.0412,0.09626 -0.0413,0.04125 -0.0963,0.04125 -0.0619,0 -0.10313,-0.04125 -0.0344,-0.04125 -0.0344,-0.09626 V 75.28632 q -0.16502,0.364408 -0.52255,0.611931 -0.35753,0.247522 -0.79757,0.247522 -0.44691,0 -0.81132,-0.233771 -0.36441,-0.240647 -0.57755,-0.653184 -0.20627,-0.412537 -0.20627,-0.921333 0,-0.508796 0.20627,-0.921333 0.21314,-0.412537 0.57755,-0.646308 0.36441,-0.233772 0.81132,-0.233772 0.42629,0 0.7907,0.240647 0.3644,0.240647 0.52942,0.625682 V 71.12657 q 0,-0.055 0.0344,-0.09626 0.0412,-0.04125 0.10313,-0.04125 z m -1.44388,4.895441 q 0.38504,0 0.68756,-0.199393 0.30253,-0.199393 0.47442,-0.550049 0.17189,-0.357532 0.17189,-0.797572 0,-0.44004 -0.17189,-0.790696 -0.17189,-0.350657 -0.48129,-0.55005 -0.30253,-0.199393 -0.68069,-0.199393 -0.37128,0 -0.68068,0.199393 -0.30253,0.199393 -0.4813,0.556925 -0.17189,0.350657 -0.17189,0.783821 0,0.44004 0.17189,0.790696 0.17877,0.350657 0.4813,0.556925 0.30252,0.199393 0.68068,0.199393 z"
           style="font-style:normal;font-variant:normal;font-weight:normal;font-stretch:normal;font-family:'Quicksand Light';-inkscape-font-specification:'Quicksand Light, ';fill:#ffffff;stroke-width:0.171891"
           id="path188" />
        <path
           d="m 225.05976,72.536074 q 0.31628,0 0.31628,0.15814 0,0.06188 -0.0344,0.103134 -0.0344,0.04125 -0.0894,0.04125 -0.0206,0 -0.10313,-0.0275 -0.0756,-0.03438 -0.16502,-0.03438 -0.2819,0 -0.5638,0.226896 -0.2819,0.220019 -0.46067,0.5638 -0.17876,0.336906 -0.17876,0.653184 v 1.718905 q 0,0.05501 -0.0413,0.09626 -0.0413,0.04125 -0.0963,0.04125 -0.0619,0 -0.10313,-0.04125 -0.0344,-0.04125 -0.0344,-0.09626 v -3.155909 q 0,-0.055 0.0413,-0.09626 0.0412,-0.04125 0.0962,-0.04125 0.0619,0 0.0963,0.04125 0.0413,0.04125 0.0413,0.09626 v 0.728816 q 0.15814,-0.419413 0.48817,-0.694438 0.3369,-0.275025 0.79069,-0.281901 z"
           style="font-style:normal;font-variant:normal;font-weight:normal;font-stretch:normal;font-family:'Quicksand Light';-inkscape-font-specification:'Quicksand Light, ';fill:#ffffff;stroke-width:0.171891"
           id="path190" />
        <path
           d="m 229.03385,74.344363 q 0,0.508795 -0.22002,0.921333 -0.22002,0.405661 -0.61193,0.646308 -0.38504,0.233771 -0.85945,0.233771 -0.47442,0 -0.86633,-0.233771 -0.38504,-0.240647 -0.61193,-0.653184 -0.22002,-0.412537 -0.22002,-0.914457 0,-0.508796 0.22002,-0.921334 0.22689,-0.412537 0.61193,-0.646308 0.38503,-0.240647 0.86633,-0.240647 0.47441,0 0.85945,0.240647 0.39191,0.233771 0.61193,0.646308 0.22002,0.412538 0.22002,0.921334 z m -0.27503,0 q 0,-0.44004 -0.18564,-0.790697 -0.17876,-0.350656 -0.50192,-0.550049 -0.32315,-0.206269 -0.72881,-0.206269 -0.39879,0 -0.72882,0.206269 -0.32315,0.199393 -0.5088,0.550049 -0.18564,0.350657 -0.18564,0.790697 0,0.433164 0.18564,0.78382 0.18565,0.350657 0.5088,0.556925 0.33003,0.199393 0.72882,0.199393 0.40566,0 0.72881,-0.199393 0.32316,-0.199393 0.50192,-0.550049 0.18564,-0.357532 0.18564,-0.790696 z"
           style="font-style:normal;font-variant:normal;font-weight:normal;font-stretch:normal;font-family:'Quicksand Light';-inkscape-font-specification:'Quicksand Light, ';fill:#ffffff;stroke-width:0.171891"
           id="path192" />
        <path
           d="m 233.13858,76.145775 q -0.5088,0 -0.88696,-0.171891 -0.37816,-0.178766 -0.74944,-0.550049 -0.0413,-0.04125 -0.0413,-0.103134 0,-0.055 0.0481,-0.103135 0.0481,-0.05501 0.10314,-0.05501 0.0619,0 0.11688,0.06188 0.26815,0.316278 0.63256,0.481293 0.37128,0.165015 0.77695,0.165015 0.52942,0 0.8732,-0.254398 0.34378,-0.254398 0.34378,-0.673811 -0.007,-0.330029 -0.17877,-0.543174 -0.17189,-0.213144 -0.42628,-0.336905 -0.24753,-0.130637 -0.68069,-0.288776 -0.47442,-0.178766 -0.74257,-0.316278 -0.26127,-0.137513 -0.45379,-0.391911 -0.18564,-0.254398 -0.18564,-0.666935 0,-0.336905 0.18564,-0.61193 0.18564,-0.275025 0.52942,-0.433164 0.34379,-0.158139 0.79758,-0.158139 0.40566,0 0.77007,0.151263 0.3644,0.144388 0.57755,0.412537 0.0687,0.09626 0.0687,0.144388 0,0.05501 -0.055,0.103135 -0.0481,0.04125 -0.11001,0.04125 -0.055,0 -0.0894,-0.04125 -0.19252,-0.247523 -0.49505,-0.391911 -0.30253,-0.144388 -0.66693,-0.144388 -0.52255,0 -0.87321,0.247523 -0.34378,0.247522 -0.34378,0.67381 0,0.295652 0.16502,0.501921 0.17189,0.206268 0.42628,0.336905 0.2544,0.123761 0.63256,0.261274 0.4813,0.17189 0.7632,0.316278 0.2819,0.144388 0.48129,0.419413 0.19939,0.275025 0.19939,0.728816 0,0.316278 -0.18564,0.591303 -0.18564,0.275025 -0.5363,0.44004 -0.34378,0.158139 -0.79069,0.158139 z"
           style="font-style:normal;font-variant:normal;font-weight:normal;font-stretch:normal;font-family:'Quicksand Light';-inkscape-font-specification:'Quicksand Light, ';fill:#ffffff;stroke-width:0.171891"
           id="path194" />
        <path
           d="m 237.06455,72.536074 q 0.29565,0 0.57068,0.06876 0.2819,0.06876 0.44691,0.185641 0.17189,0.11001 0.17189,0.233772 0,0.055 -0.0412,0.09626 -0.0344,0.04125 -0.0894,0.04125 -0.0619,0 -0.0962,-0.02063 -0.0275,-0.02063 -0.0825,-0.07563 -0.0894,-0.103134 -0.18564,-0.151263 -0.24753,-0.116886 -0.70132,-0.116886 -0.39191,0 -0.72881,0.206269 -0.33003,0.206268 -0.52942,0.5638 -0.19252,0.350657 -0.19252,0.77007 0,0.44004 0.17876,0.797572 0.18565,0.350656 0.51568,0.550049 0.3369,0.199393 0.75631,0.199393 0.27503,0 0.43317,-0.04813 0.15814,-0.04813 0.31628,-0.137512 0.11001,-0.06876 0.19251,-0.151264 0.0344,-0.03438 0.0688,-0.055 0.0344,-0.0275 0.0688,-0.0275 0.055,0 0.0825,0.03438 0.0344,0.03438 0.0344,0.08938 0,0.09626 -0.15814,0.233771 -0.15814,0.130637 -0.44004,0.226895 -0.27502,0.09626 -0.6188,0.09626 -0.49505,0 -0.88696,-0.233771 -0.38503,-0.233771 -0.60505,-0.646308 -0.21315,-0.412538 -0.21315,-0.928209 0,-0.481293 0.21315,-0.893831 0.22002,-0.412537 0.61193,-0.660059 0.39878,-0.247523 0.90758,-0.247523 z"
           style="font-style:normal;font-variant:normal;font-weight:normal;font-stretch:normal;font-family:'Quicksand Light';-inkscape-font-specification:'Quicksand Light, ';fill:#ffffff;stroke-width:0.171891"
           id="path196" />
        <path
           d="m 239.37475,75.939506 q 0,0.05501 -0.0413,0.09626 -0.0413,0.04125 -0.0963,0.04125 -0.0619,0 -0.10313,-0.04125 -0.0344,-0.04125 -0.0344,-0.09626 v -3.265919 q 0,-0.055 0.0413,-0.09626 0.0412,-0.04125 0.0962,-0.04125 0.0619,0 0.0963,0.04125 0.0413,0.04125 0.0413,0.09626 z m -0.13752,-3.870974 q -0.11001,0 -0.17876,-0.06188 -0.0619,-0.06188 -0.0619,-0.158139 v -0.055 q 0,-0.09626 0.0687,-0.15814 0.0688,-0.06188 0.17877,-0.06188 0.0963,0 0.15814,0.06188 0.0688,0.06188 0.0688,0.15814 v 0.055 q 0,0.09626 -0.0688,0.158139 -0.0619,0.06188 -0.16502,0.06188 z"
           style="font-style:normal;font-variant:normal;font-weight:normal;font-stretch:normal;font-family:'Quicksand Light';-inkscape-font-specification:'Quicksand Light, ';fill:#ffffff;stroke-width:0.171891"
           id="path198" />
        <path
           d="m 243.66513,74.344363 q 0,0.508795 -0.22002,0.921333 -0.22002,0.405661 -0.61193,0.646308 -0.38504,0.233771 -0.85945,0.233771 -0.47442,0 -0.86633,-0.233771 -0.38504,-0.240647 -0.61193,-0.653184 -0.22002,-0.412537 -0.22002,-0.914457 0,-0.508796 0.22002,-0.921334 0.22689,-0.412537 0.61193,-0.646308 0.38503,-0.240647 0.86633,-0.240647 0.47441,0 0.85945,0.240647 0.39191,0.233771 0.61193,0.646308 0.22002,0.412538 0.22002,0.921334 z m -0.27503,0 q 0,-0.44004 -0.18564,-0.790697 -0.17876,-0.350656 -0.50192,-0.550049 -0.32315,-0.206269 -0.72881,-0.206269 -0.39879,0 -0.72882,0.206269 -0.32315,0.199393 -0.50879,0.550049 -0.18565,0.350657 -0.18565,0.790697 0,0.433164 0.18565,0.78382 0.18564,0.350657 0.50879,0.556925 0.33003,0.199393 0.72882,0.199393 0.40566,0 0.72881,-0.199393 0.32316,-0.199393 0.50192,-0.550049 0.18564,-0.357532 0.18564,-0.790696 z"
           style="font-style:normal;font-variant:normal;font-weight:normal;font-stretch:normal;font-family:'Quicksand Light';-inkscape-font-specification:'Quicksand Light, ';fill:#ffffff;stroke-width:0.171891"
           id="path200" />
        <path
           d="m 244.87523,75.939506 q 0,0.05501 -0.0412,0.09626 -0.0413,0.04125 -0.0963,0.04125 -0.0619,0 -0.10314,-0.04125 -0.0344,-0.04125 -0.0344,-0.09626 v -4.812934 q 0,-0.055 0.0412,-0.09626 0.0412,-0.04125 0.0963,-0.04125 0.0619,0 0.0963,0.04125 0.0412,0.04125 0.0412,0.09626 z"
           style="font-style:normal;font-variant:normal;font-weight:normal;font-stretch:normal;font-family:'Quicksand Light';-inkscape-font-specification:'Quicksand Light, ';fill:#ffffff;stroke-width:0.171891"
           id="path202" />
        <path
           d="m 248.86309,72.646084 q 0.0619,0 0.0963,0.04125 0.0412,0.04125 0.0412,0.09626 v 3.155909 q 0,0.05501 -0.0412,0.09626 -0.0413,0.04125 -0.0963,0.04125 -0.0619,0 -0.10314,-0.04125 -0.0344,-0.04125 -0.0344,-0.09626 v -0.618805 q -0.17189,0.350656 -0.52942,0.591303 -0.35753,0.233771 -0.79069,0.233771 -0.4538,0 -0.8182,-0.233771 -0.36441,-0.240647 -0.57068,-0.653184 -0.20627,-0.419413 -0.20627,-0.935084 0,-0.508796 0.20627,-0.914458 0.21314,-0.412537 0.57755,-0.639432 0.36441,-0.233772 0.81133,-0.233772 0.44691,0 0.80444,0.233772 0.35754,0.233771 0.51567,0.625681 v -0.61193 q 0,-0.055 0.0344,-0.09626 0.0413,-0.04125 0.10314,-0.04125 z m -1.44388,3.238417 q 0.37816,0 0.68068,-0.199393 0.30941,-0.206268 0.4813,-0.5638 0.17189,-0.357533 0.17189,-0.797572 0,-0.419413 -0.17189,-0.77007 -0.17189,-0.350656 -0.4813,-0.550049 -0.30252,-0.206269 -0.68068,-0.206269 -0.37816,0 -0.68757,0.199393 -0.30252,0.192517 -0.47441,0.543174 -0.17189,0.343781 -0.17189,0.783821 0,0.440039 0.17189,0.797572 0.17189,0.357532 0.47441,0.5638 0.30253,0.199393 0.68757,0.199393 z"
           style="font-style:normal;font-variant:normal;font-weight:normal;font-stretch:normal;font-family:'Quicksand Light';-inkscape-font-specification:'Quicksand Light, ';fill:#ffffff;stroke-width:0.171891"
           id="path204" />
      </g>
      <path
         style="fill:url(#linearGradient162);fill-opacity:1;stroke:none;stroke-width:1.19215px;stroke-linecap:butt;stroke-linejoin:miter;stroke-opacity:1"
         d="M 358.19087,50.538889 V 90.240667 C 258.15029,111.42475 113.81375,12.833989 50.726263,-20.549256 223.01373,39.758509 267.42406,74.50922 358.19087,50.538889 Z"
         id="path146"
         sodipodi:nodetypes="cccc" />
    </g>
  </g>
</svg>
