<?xml version="1.0" encoding="UTF-8" standalone="no"?>
<svg
   xmlns:dc="http://purl.org/dc/elements/1.1/"
   xmlns:cc="http://creativecommons.org/ns#"
   xmlns:rdf="http://www.w3.org/1999/02/22-rdf-syntax-ns#"
   xmlns:svg="http://www.w3.org/2000/svg"
   xmlns="http://www.w3.org/2000/svg"
   xmlns:xlink="http://www.w3.org/1999/xlink"
   xmlns:sodipodi="http://sodipodi.sourceforge.net/DTD/sodipodi-0.dtd"
   xmlns:inkscape="http://www.inkscape.org/namespaces/inkscape"
   width="508mm"
   height="280.28738mm"
   viewBox="0 0 508 280.28739"
   version="1.1"
   id="svg8"
   inkscape:version="1.0.2 (e86c870879, 2021-01-15)"
   sodipodi:docname="header.svg">
  <defs
     id="defs2">
    <linearGradient
       inkscape:collect="always"
       id="linearGradient176">
      <stop
         style="stop-color:#aa0000;stop-opacity:1"
         offset="0"
         id="stop172" />
      <stop
         style="stop-color:#800000;stop-opacity:1"
         offset="1"
         id="stop174" />
    </linearGradient>
    <linearGradient
       inkscape:collect="always"
       id="linearGradient160">
      <stop
         style="stop-color:#ff0000;stop-opacity:1;"
         offset="0"
         id="stop156" />
      <stop
         style="stop-color:#aa0000;stop-opacity:1"
         offset="1"
         id="stop158" />
    </linearGradient>
    <linearGradient
       inkscape:collect="always"
       id="linearGradient152">
      <stop
         style="stop-color:#ff0000;stop-opacity:1;"
         offset="0"
         id="stop148" />
      <stop
         style="stop-color:#550000;stop-opacity:1"
         offset="1"
         id="stop150" />
    </linearGradient>
    <linearGradient
       inkscape:collect="always"
       xlink:href="#linearGradient152"
       id="linearGradient154"
       x1="153.42516"
       y1="86.550598"
       x2="234.75346"
       y2="85.957085"
       gradientUnits="userSpaceOnUse" />
    <linearGradient
       inkscape:collect="always"
       xlink:href="#linearGradient160"
       id="linearGradient162"
       x1="253.23351"
       y1="97.214798"
       x2="251.13503"
       y2="102.51037"
       gradientUnits="userSpaceOnUse" />
    <linearGradient
       inkscape:collect="always"
       xlink:href="#linearGradient176"
       id="linearGradient178"
       x1="235.71332"
       y1="106.27121"
       x2="179.91742"
       y2="94.242088"
       gradientUnits="userSpaceOnUse" />
  </defs>
  <sodipodi:namedview
     id="base"
     pagecolor="#ffffff"
     bordercolor="#666666"
     borderopacity="1.0"
     inkscape:pageopacity="0.0"
     inkscape:pageshadow="2"
     inkscape:zoom="0.79104823"
     inkscape:cx="959.99998"
     inkscape:cy="529.67693"
     inkscape:document-units="mm"
     inkscape:current-layer="layer1"
     inkscape:document-rotation="0"
     showgrid="false"
     inkscape:snap-global="false"
     inkscape:window-width="1920"
     inkscape:window-height="1029"
     inkscape:window-x="0"
     inkscape:window-y="27"
     inkscape:window-maximized="1"
     fit-margin-top="0"
     fit-margin-left="0"
     fit-margin-right="0"
     fit-margin-bottom="0" />
  <metadata
     id="metadata5">
    <rdf:RDF>
      <cc:Work
         rdf:about="">
        <dc:format>image/svg+xml</dc:format>
        <dc:type
           rdf:resource="http://purl.org/dc/dcmitype/StillImage" />
        <dc:title></dc:title>
      </cc:Work>
    </rdf:RDF>
  </metadata>
  <g
     inkscape:label="Layer 1"
     inkscape:groupmode="layer"
     id="layer1"
     transform="translate(149.80785,127.89707)">
    <g
       id="g335"
       transform="matrix(4.5057682,0,0,4.5057682,-829.94613,-375.82027)">
      <path
         id="path280"
         style="fill:#ffffff;stroke:none;stroke-width:0.531228"
         d="M 150.94841,117.22986 V 78.747387 c 45.182,5.822934 72.31662,-17.252034 112.74402,-10.198343 v 48.680816 z" />
      <path
         id="rect76"
         style="fill:#1a1a1a;stroke:none;stroke-width:2.00779"
         d="M 570.51367,207.96289 V 353.4082 c 170.76662,-22.00794 273.32267,65.20454 426.11914,38.54492 V 207.96289 Z"
         transform="scale(0.26458333)" />
      <path
         style="fill:url(#linearGradient154);fill-opacity:1;stroke:none;stroke-width:0.264583px;stroke-linecap:butt;stroke-linejoin:miter;stroke-opacity:1"
         d="m 150.94842,96.324393 0.0534,-13.672619 c 11.59824,-4.88716 25.062,-5.117701 39.9231,-1.339826 23.16897,6.343153 39.37924,23.020932 71.70874,24.151412 l -0.22327,-0.50816 c -12.59276,6.16065 -25.55993,8.0771 -38.72843,4.12024 -21.08587,-6.37495 -40.72314,-20.846038 -60.30305,-21.065744 -3.75688,0.002 -7.8635,7.446395 -12.4305,8.314697 z"
         id="path128"
         sodipodi:nodetypes="ccccccccc" />
      <path
         style="fill:url(#linearGradient178);fill-opacity:1;stroke:none;stroke-width:0.264583px;stroke-linecap:butt;stroke-linejoin:miter;stroke-opacity:1"
         d="m 150.94835,98.095868 v -5.592802 c 11.05333,-6.018917 23.82173,-8.575995 38.98539,-6.298269 19.49618,3.065106 35.66474,13.634921 52.99396,16.818003 5.55318,0.97254 12.04176,1.21374 20.76502,0.0653 v 2.2399 c -11.91595,7.3852 -24.90033,7.86138 -38.39766,5.23685 -21.6163,-4.24139 -42.59823,-16.683 -62.10252,-14.949918 -3.73798,0.376438 -7.78648,1.161729 -12.24419,2.480936 z"
         id="path78"
         sodipodi:nodetypes="ccccccccc" />
      <path
         style="fill:#ff0000;stroke:none;stroke-width:0.264583px;stroke-linecap:butt;stroke-linejoin:miter;stroke-opacity:1"
         d="m 150.94844,114.25379 0.0697,-14.411147 c 14.51953,-5.945867 27.76687,-2.191359 35.82464,-0.178666 -19.59686,0.02935 -28.59539,6.771353 -35.89437,14.589813 z"
         id="path126"
         sodipodi:nodetypes="ccccc" />
      <g
         aria-label="https://leandro-sciola.github.io"
         id="text140"
         style="font-style:normal;font-weight:normal;font-size:3.52778px;line-height:1.25;font-family:sans-serif;fill:#1a1a1a;fill-opacity:1;stroke:none;stroke-width:0.295853">
        <path
           d="m 160.3405,112.60277 v 1.16444 h -0.31695 v -1.15411 q 0,-0.27388 -0.10679,-0.40996 -0.1068,-0.13608 -0.3204,-0.13608 -0.25666,0 -0.4048,0.16364 -0.14814,0.16364 -0.14814,0.44614 v 1.09037 h -0.31867 v -2.68028 h 0.31867 v 1.05075 q 0.11369,-0.17398 0.267,-0.2601 0.15503,-0.0861 0.35657,-0.0861 0.33245,0 0.50298,0.2067 0.17053,0.20499 0.17053,0.60462 z"
           style="font-size:3.52778px;fill:#1a1a1a;stroke-width:0.295853"
           id="path207" />
        <path
           d="m 161.28618,111.29019 v 0.54777 h 0.65285 v 0.24632 h -0.65285 v 1.04731 q 0,0.23599 0.0637,0.30317 0.0654,0.0672 0.26355,0.0672 h 0.32556 v 0.26527 h -0.32556 q -0.36691,0 -0.50643,-0.13608 -0.13953,-0.1378 -0.13953,-0.49954 v -1.04731 h -0.23254 v -0.24632 h 0.23254 v -0.54777 z"
           style="font-size:3.52778px;fill:#1a1a1a;stroke-width:0.295853"
           id="path209" />
        <path
           d="m 162.66939,111.29019 v 0.54777 h 0.65285 v 0.24632 h -0.65285 v 1.04731 q 0,0.23599 0.0637,0.30317 0.0655,0.0672 0.26355,0.0672 h 0.32557 v 0.26527 h -0.32557 q -0.3669,0 -0.50643,-0.13608 -0.13952,-0.1378 -0.13952,-0.49954 v -1.04731 h -0.23255 v -0.24632 h 0.23255 v -0.54777 z"
           style="font-size:3.52778px;fill:#1a1a1a;stroke-width:0.295853"
           id="path211" />
        <path
           d="m 164.04571,113.47782 v 1.0232 h -0.31868 v -2.66306 h 0.31868 v 0.29283 q 0.0999,-0.17225 0.25149,-0.25494 0.1533,-0.0844 0.36518,-0.0844 0.3514,0 0.57016,0.27905 0.22049,0.27905 0.22049,0.73381 0,0.45475 -0.22049,0.7338 -0.21876,0.27906 -0.57016,0.27906 -0.21188,0 -0.36518,-0.0827 -0.15159,-0.0844 -0.25149,-0.25666 z m 1.07831,-0.67351 q 0,-0.34968 -0.14469,-0.54777 -0.14297,-0.19982 -0.39447,-0.19982 -0.25149,0 -0.39618,0.19982 -0.14297,0.19809 -0.14297,0.54777 0,0.34967 0.14297,0.54949 0.14469,0.19809 0.39618,0.19809 0.2515,0 0.39447,-0.19809 0.14469,-0.19982 0.14469,-0.54949 z"
           style="font-size:3.52778px;fill:#1a1a1a;stroke-width:0.295853"
           id="path213" />
        <path
           d="m 167.2083,111.8948 v 0.29972 q -0.13435,-0.0689 -0.27905,-0.10335 -0.14469,-0.0345 -0.29972,-0.0345 -0.23599,0 -0.35485,0.0724 -0.11713,0.0724 -0.11713,0.21704 0,0.11024 0.0844,0.17398 0.0844,0.062 0.33934,0.11885 l 0.10852,0.0241 q 0.33762,0.0724 0.47887,0.20498 0.14297,0.13092 0.14297,0.3669 0,0.26872 -0.2136,0.42547 -0.21187,0.15676 -0.58394,0.15676 -0.15503,0 -0.32384,-0.031 -0.16709,-0.0293 -0.35312,-0.0896 v -0.32729 q 0.1757,0.0913 0.34623,0.13781 0.17053,0.0448 0.33762,0.0448 0.22393,0 0.34451,-0.0758 0.12058,-0.0775 0.12058,-0.21704 0,-0.12919 -0.0879,-0.19809 -0.0861,-0.0689 -0.38069,-0.13264 l -0.11024,-0.0258 q -0.29456,-0.062 -0.42547,-0.18948 -0.13091,-0.12919 -0.13091,-0.35312 0,-0.27216 0.19292,-0.4203 0.19293,-0.14814 0.54777,-0.14814 0.1757,0 0.33073,0.0258 0.15503,0.0258 0.28594,0.0775 z"
           style="font-size:3.52778px;fill:#1a1a1a;stroke-width:0.295853"
           id="path215" />
        <path
           d="m 167.89733,113.32968 h 0.36345 v 0.43753 h -0.36345 z m 0,-1.38665 h 0.36345 v 0.43753 h -0.36345 z"
           style="font-size:3.52778px;fill:#1a1a1a;stroke-width:0.295853"
           id="path217" />
        <path
           d="m 169.5682,111.19545 h 0.29283 l -0.89572,2.89905 h -0.29284 z"
           style="font-size:3.52778px;fill:#1a1a1a;stroke-width:0.295853"
           id="path219" />
        <path
           d="m 170.75676,111.19545 h 0.29283 l -0.89573,2.89905 h -0.29283 z"
           style="font-size:3.52778px;fill:#1a1a1a;stroke-width:0.295853"
           id="path221" />
        <path
           d="m 171.38204,111.08693 h 0.31695 v 2.68028 h -0.31695 z"
           style="font-size:3.52778px;fill:#1a1a1a;stroke-width:0.295853"
           id="path223" />
        <path
           d="m 174.01237,112.72335 v 0.15503 h -1.45727 q 0.0207,0.32728 0.19637,0.49954 0.17742,0.17053 0.49265,0.17053 0.18259,0 0.35312,-0.0448 0.17225,-0.0448 0.34106,-0.13436 v 0.29973 q -0.17053,0.0723 -0.34967,0.11024 -0.17915,0.0379 -0.36346,0.0379 -0.46164,0 -0.73209,-0.26872 -0.26871,-0.26872 -0.26871,-0.72692 0,-0.4737 0.25493,-0.75103 0.25666,-0.27905 0.69075,-0.27905 0.38929,0 0.61495,0.25149 0.22737,0.24977 0.22737,0.68041 z m -0.31695,-0.093 q -0.003,-0.26011 -0.14641,-0.41513 -0.14125,-0.15503 -0.37552,-0.15503 -0.26527,0 -0.42547,0.14986 -0.15847,0.14986 -0.18259,0.42202 z"
           style="font-size:3.52778px;fill:#1a1a1a;stroke-width:0.295853"
           id="path225" />
        <path
           d="m 175.40936,112.79742 q -0.38413,0 -0.53227,0.0879 -0.14814,0.0878 -0.14814,0.29972 0,0.16881 0.11025,0.26872 0.11196,0.0982 0.30317,0.0982 0.26355,0 0.42202,-0.18603 0.1602,-0.18776 0.1602,-0.49782 v -0.0706 z m 0.63218,-0.13092 v 1.10071 h -0.31695 v -0.29283 q -0.10852,0.1757 -0.27044,0.2601 -0.16192,0.0827 -0.39619,0.0827 -0.29628,0 -0.47198,-0.16537 -0.17398,-0.16709 -0.17398,-0.44614 0,-0.32556 0.21705,-0.49093 0.21876,-0.16536 0.65112,-0.16536 h 0.44442 v -0.031 q 0,-0.21876 -0.1447,-0.33762 -0.14297,-0.12057 -0.40307,-0.12057 -0.16537,0 -0.32212,0.0396 -0.15675,0.0396 -0.30145,0.11886 v -0.29283 q 0.17398,-0.0672 0.33762,-0.0999 0.16365,-0.0345 0.31868,-0.0345 0.41857,0 0.62528,0.21704 0.20671,0.21704 0.20671,0.65801 z"
           style="font-size:3.52778px;fill:#1a1a1a;stroke-width:0.295853"
           id="path227" />
        <path
           d="m 178.29807,112.60277 v 1.16444 h -0.31695 v -1.15411 q 0,-0.27388 -0.10679,-0.40996 -0.1068,-0.13608 -0.3204,-0.13608 -0.25666,0 -0.4048,0.16364 -0.14814,0.16364 -0.14814,0.44614 v 1.09037 h -0.31867 v -1.92925 h 0.31867 v 0.29972 q 0.11369,-0.17398 0.267,-0.2601 0.15503,-0.0861 0.35657,-0.0861 0.33245,0 0.50298,0.2067 0.17053,0.20499 0.17053,0.60462 z"
           style="font-size:3.52778px;fill:#1a1a1a;stroke-width:0.295853"
           id="path229" />
        <path
           d="m 180.19977,112.13079 v -1.04386 h 0.31695 v 2.68028 h -0.31695 v -0.28939 q -0.0999,0.17226 -0.25322,0.25666 -0.15158,0.0827 -0.36518,0.0827 -0.34967,0 -0.57016,-0.27906 -0.21876,-0.27905 -0.21876,-0.7338 0,-0.45476 0.21876,-0.73381 0.22049,-0.27905 0.57016,-0.27905 0.2136,0 0.36518,0.0844 0.15331,0.0827 0.25322,0.25494 z m -1.08004,0.67352 q 0,0.34967 0.14297,0.54949 0.1447,0.19809 0.39619,0.19809 0.25149,0 0.39618,-0.19809 0.1447,-0.19982 0.1447,-0.54949 0,-0.34968 -0.1447,-0.54777 -0.14469,-0.19982 -0.39618,-0.19982 -0.25149,0 -0.39619,0.19982 -0.14297,0.19809 -0.14297,0.54777 z"
           style="font-size:3.52778px;fill:#1a1a1a;stroke-width:0.295853"
           id="path231" />
        <path
           d="m 182.2875,112.13424 q -0.0534,-0.031 -0.11713,-0.0448 -0.062,-0.0155 -0.13781,-0.0155 -0.26872,0 -0.41341,0.1757 -0.14297,0.17397 -0.14297,0.50126 v 1.0163 h -0.31867 v -1.92925 h 0.31867 v 0.29972 q 0.0999,-0.1757 0.2601,-0.2601 0.1602,-0.0861 0.3893,-0.0861 0.0327,0 0.0724,0.005 0.0396,0.003 0.0878,0.0121 z"
           style="font-size:3.52778px;fill:#1a1a1a;stroke-width:0.295853"
           id="path233" />
        <path
           d="m 183.29002,112.06017 q -0.25494,0 -0.40307,0.19981 -0.14814,0.19809 -0.14814,0.54433 0,0.34623 0.14641,0.54605 0.14814,0.19809 0.4048,0.19809 0.25322,0 0.40136,-0.19982 0.14814,-0.19981 0.14814,-0.54432 0,-0.34279 -0.14814,-0.54261 -0.14814,-0.20153 -0.40136,-0.20153 z m 0,-0.26872 q 0.41341,0 0.6494,0.26872 0.23599,0.26871 0.23599,0.74414 0,0.4737 -0.23599,0.74414 -0.23599,0.26872 -0.6494,0.26872 -0.41513,0 -0.65112,-0.26872 -0.23427,-0.27044 -0.23427,-0.74414 0,-0.47543 0.23427,-0.74414 0.23599,-0.26872 0.65112,-0.26872 z"
           style="font-size:3.52778px;fill:#1a1a1a;stroke-width:0.295853"
           id="path235" />
        <path
           d="m 184.60605,112.65961 h 0.92845 v 0.2825 h -0.92845 z"
           style="font-size:3.52778px;fill:#1a1a1a;stroke-width:0.295853"
           id="path237" />
        <path
           d="m 187.26911,111.8948 v 0.29972 q -0.13436,-0.0689 -0.27905,-0.10335 -0.1447,-0.0345 -0.29973,-0.0345 -0.23599,0 -0.35484,0.0724 -0.11714,0.0724 -0.11714,0.21704 0,0.11024 0.0844,0.17398 0.0844,0.062 0.33934,0.11885 l 0.10852,0.0241 q 0.33762,0.0724 0.47887,0.20498 0.14297,0.13092 0.14297,0.3669 0,0.26872 -0.21359,0.42547 -0.21188,0.15676 -0.58395,0.15676 -0.15503,0 -0.32384,-0.031 -0.16709,-0.0293 -0.35312,-0.0896 v -0.32729 q 0.1757,0.0913 0.34623,0.13781 0.17053,0.0448 0.33762,0.0448 0.22393,0 0.34451,-0.0758 0.12058,-0.0775 0.12058,-0.21704 0,-0.12919 -0.0879,-0.19809 -0.0861,-0.0689 -0.38068,-0.13264 l -0.11025,-0.0258 q -0.29455,-0.062 -0.42547,-0.18948 -0.13091,-0.12919 -0.13091,-0.35312 0,-0.27216 0.19293,-0.4203 0.19292,-0.14814 0.54777,-0.14814 0.1757,0 0.33073,0.0258 0.15502,0.0258 0.28594,0.0775 z"
           style="font-size:3.52778px;fill:#1a1a1a;stroke-width:0.295853"
           id="path239" />
        <path
           d="m 189.26554,111.91203 v 0.29628 q -0.13435,-0.0741 -0.27044,-0.11025 -0.13435,-0.0379 -0.27216,-0.0379 -0.30834,0 -0.47887,0.19637 -0.17053,0.19464 -0.17053,0.54777 0,0.35312 0.17053,0.54949 0.17053,0.19465 0.47887,0.19465 0.13781,0 0.27216,-0.0362 0.13609,-0.0379 0.27044,-0.11196 v 0.29283 q -0.13263,0.062 -0.2756,0.093 -0.14125,0.031 -0.30145,0.031 -0.4358,0 -0.69246,-0.27389 -0.25666,-0.27388 -0.25666,-0.73897 0,-0.47198 0.25838,-0.74242 0.2601,-0.27044 0.71141,-0.27044 0.14642,0 0.28594,0.031 0.13953,0.0293 0.27044,0.0896 z"
           style="font-size:3.52778px;fill:#1a1a1a;stroke-width:0.295853"
           id="path241" />
        <path
           d="m 189.81676,111.83796 h 0.31695 v 1.92925 h -0.31695 z m 0,-0.75103 h 0.31695 v 0.40135 h -0.31695 z"
           style="font-size:3.52778px;fill:#1a1a1a;stroke-width:0.295853"
           id="path243" />
        <path
           d="m 191.54448,112.06017 q -0.25494,0 -0.40308,0.19981 -0.14814,0.19809 -0.14814,0.54433 0,0.34623 0.14642,0.54605 0.14814,0.19809 0.4048,0.19809 0.25321,0 0.40135,-0.19982 0.14814,-0.19981 0.14814,-0.54432 0,-0.34279 -0.14814,-0.54261 -0.14814,-0.20153 -0.40135,-0.20153 z m 0,-0.26872 q 0.41341,0 0.6494,0.26872 0.23599,0.26871 0.23599,0.74414 0,0.4737 -0.23599,0.74414 -0.23599,0.26872 -0.6494,0.26872 -0.41514,0 -0.65113,-0.26872 -0.23426,-0.27044 -0.23426,-0.74414 0,-0.47543 0.23426,-0.74414 0.23599,-0.26872 0.65113,-0.26872 z"
           style="font-size:3.52778px;fill:#1a1a1a;stroke-width:0.295853"
           id="path245" />
        <path
           d="m 192.95524,111.08693 h 0.31695 v 2.68028 h -0.31695 z"
           style="font-size:3.52778px;fill:#1a1a1a;stroke-width:0.295853"
           id="path247" />
        <path
           d="m 194.81215,112.79742 q -0.38413,0 -0.53227,0.0879 -0.14814,0.0878 -0.14814,0.29972 0,0.16881 0.11025,0.26872 0.11196,0.0982 0.30316,0.0982 0.26355,0 0.42203,-0.18603 0.1602,-0.18776 0.1602,-0.49782 v -0.0706 z m 0.63218,-0.13092 v 1.10071 h -0.31695 v -0.29283 q -0.10852,0.1757 -0.27044,0.2601 -0.16192,0.0827 -0.39619,0.0827 -0.29628,0 -0.47198,-0.16537 -0.17398,-0.16709 -0.17398,-0.44614 0,-0.32556 0.21705,-0.49093 0.21876,-0.16536 0.65112,-0.16536 h 0.44442 v -0.031 q 0,-0.21876 -0.1447,-0.33762 -0.14297,-0.12057 -0.40307,-0.12057 -0.16537,0 -0.32212,0.0396 -0.15675,0.0396 -0.30145,0.11886 v -0.29283 q 0.17398,-0.0672 0.33762,-0.0999 0.16364,-0.0345 0.31867,-0.0345 0.41858,0 0.62529,0.21704 0.20671,0.21704 0.20671,0.65801 z"
           style="font-size:3.52778px;fill:#1a1a1a;stroke-width:0.295853"
           id="path249" />
        <path
           d="m 196.14196,113.32968 h 0.36346 v 0.43753 h -0.36346 z"
           style="font-size:3.52778px;fill:#1a1a1a;stroke-width:0.295853"
           id="path251" />
        <path
           d="m 198.48807,112.78019 q 0,-0.34451 -0.14297,-0.53399 -0.14125,-0.18948 -0.39791,-0.18948 -0.25494,0 -0.39791,0.18948 -0.14125,0.18948 -0.14125,0.53399 0,0.34279 0.14125,0.53227 0.14297,0.18948 0.39791,0.18948 0.25666,0 0.39791,-0.18948 0.14297,-0.18948 0.14297,-0.53227 z m 0.31695,0.74759 q 0,0.49265 -0.21876,0.73208 -0.21877,0.24116 -0.67008,0.24116 -0.16708,0 -0.31522,-0.0258 -0.14814,-0.0241 -0.28767,-0.0758 v -0.30834 q 0.13953,0.0758 0.27561,0.11197 0.13608,0.0362 0.27733,0.0362 0.31178,0 0.46681,-0.16364 0.15503,-0.16192 0.15503,-0.49093 v -0.15675 q -0.0982,0.17053 -0.25149,0.25494 -0.15331,0.0844 -0.3669,0.0844 -0.35485,0 -0.57189,-0.27044 -0.21704,-0.27044 -0.21704,-0.71658 0,-0.44786 0.21704,-0.7183 0.21704,-0.27044 0.57189,-0.27044 0.21359,0 0.3669,0.0844 0.15331,0.0844 0.25149,0.25494 v -0.29283 h 0.31695 z"
           style="font-size:3.52778px;fill:#1a1a1a;stroke-width:0.295853"
           id="path253" />
        <path
           d="m 199.45786,111.83796 h 0.31695 v 1.92925 h -0.31695 z m 0,-0.75103 h 0.31695 v 0.40135 h -0.31695 z"
           style="font-size:3.52778px;fill:#1a1a1a;stroke-width:0.295853"
           id="path255" />
        <path
           d="m 200.7515,111.29019 v 0.54777 h 0.65285 v 0.24632 h -0.65285 v 1.04731 q 0,0.23599 0.0637,0.30317 0.0654,0.0672 0.26355,0.0672 h 0.32556 v 0.26527 h -0.32556 q -0.36691,0 -0.50643,-0.13608 -0.13953,-0.1378 -0.13953,-0.49954 v -1.04731 h -0.23254 v -0.24632 h 0.23254 v -0.54777 z"
           style="font-size:3.52778px;fill:#1a1a1a;stroke-width:0.295853"
           id="path257" />
        <path
           d="m 203.4249,112.60277 v 1.16444 h -0.31695 v -1.15411 q 0,-0.27388 -0.1068,-0.40996 -0.1068,-0.13608 -0.3204,-0.13608 -0.25666,0 -0.40479,0.16364 -0.14814,0.16364 -0.14814,0.44614 v 1.09037 h -0.31868 v -2.68028 h 0.31868 v 1.05075 q 0.11368,-0.17398 0.26699,-0.2601 0.15503,-0.0861 0.35657,-0.0861 0.33245,0 0.50298,0.2067 0.17054,0.20499 0.17054,0.60462 z"
           style="font-size:3.52778px;fill:#1a1a1a;stroke-width:0.295853"
           id="path259" />
        <path
           d="m 204.02434,113.00585 v -1.16789 h 0.31695 v 1.15583 q 0,0.27388 0.1068,0.41169 0.1068,0.13608 0.32039,0.13608 0.25666,0 0.4048,-0.16364 0.14986,-0.16365 0.14986,-0.44614 v -1.09382 h 0.31695 v 1.92925 h -0.31695 v -0.29628 q -0.11541,0.1757 -0.26872,0.26183 -0.15158,0.0844 -0.35312,0.0844 -0.33245,0 -0.5047,-0.20671 -0.17226,-0.20671 -0.17226,-0.60461 z m 0.79754,-1.2144 z"
           style="font-size:3.52778px;fill:#1a1a1a;stroke-width:0.295853"
           id="path261" />
        <path
           d="m 207.67787,112.80431 q 0,-0.34968 -0.1447,-0.54777 -0.14297,-0.19982 -0.39446,-0.19982 -0.25149,0 -0.39619,0.19982 -0.14297,0.19809 -0.14297,0.54777 0,0.34967 0.14297,0.54949 0.1447,0.19809 0.39619,0.19809 0.25149,0 0.39446,-0.19809 0.1447,-0.19982 0.1447,-0.54949 z m -1.07832,-0.67352 q 0.0999,-0.17225 0.2515,-0.25494 0.1533,-0.0844 0.36518,-0.0844 0.3514,0 0.57016,0.27905 0.22049,0.27905 0.22049,0.73381 0,0.45475 -0.22049,0.7338 -0.21876,0.27906 -0.57016,0.27906 -0.21188,0 -0.36518,-0.0827 -0.15159,-0.0844 -0.2515,-0.25666 v 0.28939 h -0.31867 v -2.68028 h 0.31867 z"
           style="font-size:3.52778px;fill:#1a1a1a;stroke-width:0.295853"
           id="path263" />
        <path
           d="m 208.57704,113.32968 h 0.36346 v 0.43753 h -0.36346 z"
           style="font-size:3.52778px;fill:#1a1a1a;stroke-width:0.295853"
           id="path265" />
        <path
           d="m 209.65363,111.83796 h 0.31695 v 1.92925 h -0.31695 z m 0,-0.75103 h 0.31695 v 0.40135 h -0.31695 z"
           style="font-size:3.52778px;fill:#1a1a1a;stroke-width:0.295853"
           id="path267" />
        <path
           d="m 211.38135,112.06017 q -0.25494,0 -0.40308,0.19981 -0.14814,0.19809 -0.14814,0.54433 0,0.34623 0.14642,0.54605 0.14814,0.19809 0.4048,0.19809 0.25321,0 0.40135,-0.19982 0.14814,-0.19981 0.14814,-0.54432 0,-0.34279 -0.14814,-0.54261 -0.14814,-0.20153 -0.40135,-0.20153 z m 0,-0.26872 q 0.41341,0 0.6494,0.26872 0.23599,0.26871 0.23599,0.74414 0,0.4737 -0.23599,0.74414 -0.23599,0.26872 -0.6494,0.26872 -0.41513,0 -0.65112,-0.26872 -0.23427,-0.27044 -0.23427,-0.74414 0,-0.47543 0.23427,-0.74414 0.23599,-0.26872 0.65112,-0.26872 z"
           style="font-size:3.52778px;fill:#1a1a1a;stroke-width:0.295853"
           id="path269" />
      </g>
      <g
         aria-label="Leandro Sciola"
         id="text144"
         style="font-style:normal;font-weight:normal;font-size:6.87562px;line-height:1.25;font-family:sans-serif;fill:#ffffff;fill-opacity:1;stroke:none;stroke-width:0.171891">
        <path
           d="m 206.7844,75.801994 q 0.055,0 0.0963,0.04125 0.0412,0.04125 0.0412,0.09626 0,0.06188 -0.0412,0.103135 -0.0413,0.03438 -0.0963,0.03438 h -2.52335 q -0.0619,0 -0.10314,-0.04125 -0.0344,-0.04125 -0.0344,-0.09626 V 71.4016 q 0,-0.055 0.0413,-0.09626 0.0412,-0.04125 0.10313,-0.04125 0.0619,0 0.10314,0.04125 0.0412,0.04125 0.0412,0.09626 v 4.400397 z"
           style="font-style:normal;font-variant:normal;font-weight:normal;font-stretch:normal;font-family:'Quicksand Light';-inkscape-font-specification:'Quicksand Light, ';fill:#ffffff;stroke-width:0.171891"
           id="path180" />
        <path
           d="m 210.31159,75.251944 q 0.0481,0 0.0825,0.04125 0.0344,0.03438 0.0344,0.08251 0,0.04813 -0.0275,0.08251 -0.22689,0.302527 -0.5638,0.495045 -0.3369,0.192517 -0.72194,0.192517 -0.51567,0 -0.91446,-0.22002 -0.39878,-0.22002 -0.62568,-0.625681 -0.22002,-0.405662 -0.22002,-0.94196 0,-0.55005 0.21315,-0.962587 0.22002,-0.419413 0.57755,-0.639433 0.35753,-0.22002 0.76319,-0.22002 0.40566,0 0.74945,0.178767 0.35065,0.17189 0.57067,0.522547 0.22002,0.350656 0.23377,0.866328 0,0.055 -0.0412,0.103134 -0.0413,0.04125 -0.0963,0.04125 h -2.70212 v 0.08938 q 0,0.426288 0.17189,0.783821 0.17189,0.350656 0.5088,0.556925 0.3369,0.206268 0.81132,0.206268 0.33003,0 0.61881,-0.158139 0.29565,-0.165015 0.46066,-0.412537 0.0481,-0.06188 0.11689,-0.06188 z m -1.40263,-2.440845 q -0.25439,0 -0.52254,0.137513 -0.26128,0.130636 -0.46755,0.398786 -0.19939,0.261273 -0.26815,0.639432 h 2.53023 v -0.06188 q -0.0344,-0.350657 -0.22689,-0.598179 -0.18564,-0.254398 -0.46754,-0.385035 -0.27503,-0.130637 -0.57756,-0.130637 z"
           style="font-style:normal;font-variant:normal;font-weight:normal;font-stretch:normal;font-family:'Quicksand Light';-inkscape-font-specification:'Quicksand Light, ';fill:#ffffff;stroke-width:0.171891"
           id="path182" />
        <path
           d="m 214.20318,72.646084 q 0.0619,0 0.0963,0.04125 0.0412,0.04125 0.0412,0.09626 v 3.155909 q 0,0.05501 -0.0412,0.09626 -0.0413,0.04125 -0.0963,0.04125 -0.0619,0 -0.10314,-0.04125 -0.0344,-0.04125 -0.0344,-0.09626 v -0.618805 q -0.1719,0.350656 -0.52943,0.591303 -0.35753,0.233771 -0.79069,0.233771 -0.45379,0 -0.8182,-0.233771 -0.36441,-0.240647 -0.57068,-0.653184 -0.20627,-0.419413 -0.20627,-0.935084 0,-0.508796 0.20627,-0.914458 0.21315,-0.412537 0.57755,-0.639432 0.36441,-0.233772 0.81133,-0.233772 0.44691,0 0.80444,0.233772 0.35754,0.233771 0.51568,0.625681 v -0.61193 q 0,-0.055 0.0344,-0.09626 0.0413,-0.04125 0.10314,-0.04125 z m -1.44388,3.238417 q 0.37816,0 0.68068,-0.199393 0.30941,-0.206268 0.4813,-0.5638 0.17189,-0.357533 0.17189,-0.797572 0,-0.419413 -0.17189,-0.77007 -0.17189,-0.350656 -0.4813,-0.550049 -0.30252,-0.206269 -0.68068,-0.206269 -0.37816,0 -0.68756,0.199393 -0.30253,0.192517 -0.47442,0.543174 -0.17189,0.343781 -0.17189,0.783821 0,0.440039 0.17189,0.797572 0.17189,0.357532 0.47442,0.5638 0.30252,0.199393 0.68756,0.199393 z"
           style="font-style:normal;font-variant:normal;font-weight:normal;font-stretch:normal;font-family:'Quicksand Light';-inkscape-font-specification:'Quicksand Light, ';fill:#ffffff;stroke-width:0.171891"
           id="path184" />
        <path
           d="m 217.0428,72.536074 q 0.61193,0 0.92134,0.364408 0.3094,0.357533 0.3094,0.935085 v 2.103939 q 0,0.05501 -0.0412,0.09626 -0.0413,0.04125 -0.0963,0.04125 -0.0619,0 -0.10314,-0.04125 -0.0344,-0.04125 -0.0344,-0.09626 v -2.076437 q 0,-0.467542 -0.24753,-0.763194 -0.24064,-0.302527 -0.73569,-0.302527 -0.30253,0 -0.59818,0.144388 -0.28877,0.144388 -0.47442,0.39191 -0.18564,0.247523 -0.18564,0.529423 v 2.076437 q 0,0.05501 -0.0412,0.09626 -0.0412,0.04125 -0.0963,0.04125 -0.0619,0 -0.10313,-0.04125 -0.0344,-0.04125 -0.0344,-0.09626 v -3.155909 q 0,-0.055 0.0412,-0.09626 0.0413,-0.04125 0.0963,-0.04125 0.0619,0 0.0963,0.04125 0.0412,0.04125 0.0412,0.09626 v 0.460666 q 0.1994,-0.309403 0.55693,-0.508796 0.36441,-0.199393 0.72881,-0.199393 z"
           style="font-style:normal;font-variant:normal;font-weight:normal;font-stretch:normal;font-family:'Quicksand Light';-inkscape-font-specification:'Quicksand Light, ';fill:#ffffff;stroke-width:0.171891"
           id="path186" />
        <path
           d="m 222.22701,70.98906 q 0.0619,0 0.0963,0.04125 0.0412,0.04125 0.0412,0.09626 v 4.812934 q 0,0.05501 -0.0412,0.09626 -0.0413,0.04125 -0.0963,0.04125 -0.0619,0 -0.10313,-0.04125 -0.0344,-0.04125 -0.0344,-0.09626 V 75.28632 q -0.16502,0.364408 -0.52255,0.611931 -0.35753,0.247522 -0.79757,0.247522 -0.44691,0 -0.81132,-0.233771 -0.36441,-0.240647 -0.57755,-0.653184 -0.20627,-0.412537 -0.20627,-0.921333 0,-0.508796 0.20627,-0.921333 0.21314,-0.412537 0.57755,-0.646308 0.36441,-0.233772 0.81132,-0.233772 0.42629,0 0.7907,0.240647 0.3644,0.240647 0.52942,0.625682 V 71.12657 q 0,-0.055 0.0344,-0.09626 0.0412,-0.04125 0.10313,-0.04125 z m -1.44388,4.895441 q 0.38504,0 0.68756,-0.199393 0.30253,-0.199393 0.47442,-0.550049 0.17189,-0.357532 0.17189,-0.797572 0,-0.44004 -0.17189,-0.790696 -0.17189,-0.350657 -0.48129,-0.55005 -0.30253,-0.199393 -0.68069,-0.199393 -0.37128,0 -0.68068,0.199393 -0.30253,0.199393 -0.4813,0.556925 -0.17189,0.350657 -0.17189,0.783821 0,0.44004 0.17189,0.790696 0.17877,0.350657 0.4813,0.556925 0.30252,0.199393 0.68068,0.199393 z"
           style="font-style:normal;font-variant:normal;font-weight:normal;font-stretch:normal;font-family:'Quicksand Light';-inkscape-font-specification:'Quicksand Light, ';fill:#ffffff;stroke-width:0.171891"
           id="path188" />
        <path
           d="m 225.05976,72.536074 q 0.31628,0 0.31628,0.15814 0,0.06188 -0.0344,0.103134 -0.0344,0.04125 -0.0894,0.04125 -0.0206,0 -0.10313,-0.0275 -0.0756,-0.03438 -0.16502,-0.03438 -0.2819,0 -0.5638,0.226896 -0.2819,0.220019 -0.46067,0.5638 -0.17876,0.336906 -0.17876,0.653184 v 1.718905 q 0,0.05501 -0.0413,0.09626 -0.0413,0.04125 -0.0963,0.04125 -0.0619,0 -0.10313,-0.04125 -0.0344,-0.04125 -0.0344,-0.09626 v -3.155909 q 0,-0.055 0.0413,-0.09626 0.0412,-0.04125 0.0962,-0.04125 0.0619,0 0.0963,0.04125 0.0413,0.04125 0.0413,0.09626 v 0.728816 q 0.15814,-0.419413 0.48817,-0.694438 0.3369,-0.275025 0.79069,-0.281901 z"
           style="font-style:normal;font-variant:normal;font-weight:normal;font-stretch:normal;font-family:'Quicksand Light';-inkscape-font-specification:'Quicksand Light, ';fill:#ffffff;stroke-width:0.171891"
           id="path190" />
        <path
           d="m 229.03385,74.344363 q 0,0.508795 -0.22002,0.921333 -0.22002,0.405661 -0.61193,0.646308 -0.38504,0.233771 -0.85945,0.233771 -0.47442,0 -0.86633,-0.233771 -0.38504,-0.240647 -0.61193,-0.653184 -0.22002,-0.412537 -0.22002,-0.914457 0,-0.508796 0.22002,-0.921334 0.22689,-0.412537 0.61193,-0.646308 0.38503,-0.240647 0.86633,-0.240647 0.47441,0 0.85945,0.240647 0.39191,0.233771 0.61193,0.646308 0.22002,0.412538 0.22002,0.921334 z m -0.27503,0 q 0,-0.44004 -0.18564,-0.790697 -0.17876,-0.350656 -0.50192,-0.550049 -0.32315,-0.206269 -0.72881,-0.206269 -0.39879,0 -0.72882,0.206269 -0.32315,0.199393 -0.5088,0.550049 -0.18564,0.350657 -0.18564,0.790697 0,0.433164 0.18564,0.78382 0.18565,0.350657 0.5088,0.556925 0.33003,0.199393 0.72882,0.199393 0.40566,0 0.72881,-0.199393 0.32316,-0.199393 0.50192,-0.550049 0.18564,-0.357532 0.18564,-0.790696 z"
           style="font-style:normal;font-variant:normal;font-weight:normal;font-stretch:normal;font-family:'Quicksand Light';-inkscape-font-specification:'Quicksand Light, ';fill:#ffffff;stroke-width:0.171891"
           id="path192" />
        <path
           d="m 233.13858,76.145775 q -0.5088,0 -0.88696,-0.171891 -0.37816,-0.178766 -0.74944,-0.550049 -0.0413,-0.04125 -0.0413,-0.103134 0,-0.055 0.0481,-0.103135 0.0481,-0.05501 0.10314,-0.05501 0.0619,0 0.11688,0.06188 0.26815,0.316278 0.63256,0.481293 0.37128,0.165015 0.77695,0.165015 0.52942,0 0.8732,-0.254398 0.34378,-0.254398 0.34378,-0.673811 -0.007,-0.330029 -0.17877,-0.543174 -0.17189,-0.213144 -0.42628,-0.336905 -0.24753,-0.130637 -0.68069,-0.288776 -0.47442,-0.178766 -0.74257,-0.316278 -0.26127,-0.137513 -0.45379,-0.391911 -0.18564,-0.254398 -0.18564,-0.666935 0,-0.336905 0.18564,-0.61193 0.18564,-0.275025 0.52942,-0.433164 0.34379,-0.158139 0.79758,-0.158139 0.40566,0 0.77007,0.151263 0.3644,0.144388 0.57755,0.412537 0.0687,0.09626 0.0687,0.144388 0,0.05501 -0.055,0.103135 -0.0481,0.04125 -0.11001,0.04125 -0.055,0 -0.0894,-0.04125 -0.19252,-0.247523 -0.49505,-0.391911 -0.30253,-0.144388 -0.66693,-0.144388 -0.52255,0 -0.87321,0.247523 -0.34378,0.247522 -0.34378,0.67381 0,0.295652 0.16502,0.501921 0.17189,0.206268 0.42628,0.336905 0.2544,0.123761 0.63256,0.261274 0.4813,0.17189 0.7632,0.316278 0.2819,0.144388 0.48129,0.419413 0.19939,0.275025 0.19939,0.728816 0,0.316278 -0.18564,0.591303 -0.18564,0.275025 -0.5363,0.44004 -0.34378,0.158139 -0.79069,0.158139 z"
           style="font-style:normal;font-variant:normal;font-weight:normal;font-stretch:normal;font-family:'Quicksand Light';-inkscape-font-specification:'Quicksand Light, ';fill:#ffffff;stroke-width:0.171891"
           id="path194" />
        <path
           d="m 237.06455,72.536074 q 0.29565,0 0.57068,0.06876 0.2819,0.06876 0.44691,0.185641 0.17189,0.11001 0.17189,0.233772 0,0.055 -0.0412,0.09626 -0.0344,0.04125 -0.0894,0.04125 -0.0619,0 -0.0962,-0.02063 -0.0275,-0.02063 -0.0825,-0.07563 -0.0894,-0.103134 -0.18564,-0.151263 -0.24753,-0.116886 -0.70132,-0.116886 -0.39191,0 -0.72881,0.206269 -0.33003,0.206268 -0.52942,0.5638 -0.19252,0.350657 -0.19252,0.77007 0,0.44004 0.17876,0.797572 0.18565,0.350656 0.51568,0.550049 0.3369,0.199393 0.75631,0.199393 0.27503,0 0.43317,-0.04813 0.15814,-0.04813 0.31628,-0.137512 0.11001,-0.06876 0.19251,-0.151264 0.0344,-0.03438 0.0688,-0.055 0.0344,-0.0275 0.0688,-0.0275 0.055,0 0.0825,0.03438 0.0344,0.03438 0.0344,0.08938 0,0.09626 -0.15814,0.233771 -0.15814,0.130637 -0.44004,0.226895 -0.27502,0.09626 -0.6188,0.09626 -0.49505,0 -0.88696,-0.233771 -0.38503,-0.233771 -0.60505,-0.646308 -0.21315,-0.412538 -0.21315,-0.928209 0,-0.481293 0.21315,-0.893831 0.22002,-0.412537 0.61193,-0.660059 0.39878,-0.247523 0.90758,-0.247523 z"
           style="font-style:normal;font-variant:normal;font-weight:normal;font-stretch:normal;font-family:'Quicksand Light';-inkscape-font-specification:'Quicksand Light, ';fill:#ffffff;stroke-width:0.171891"
           id="path196" />
        <path
           d="m 239.37475,75.939506 q 0,0.05501 -0.0413,0.09626 -0.0413,0.04125 -0.0963,0.04125 -0.0619,0 -0.10313,-0.04125 -0.0344,-0.04125 -0.0344,-0.09626 v -3.265919 q 0,-0.055 0.0413,-0.09626 0.0412,-0.04125 0.0962,-0.04125 0.0619,0 0.0963,0.04125 0.0413,0.04125 0.0413,0.09626 z m -0.13752,-3.870974 q -0.11001,0 -0.17876,-0.06188 -0.0619,-0.06188 -0.0619,-0.158139 v -0.055 q 0,-0.09626 0.0687,-0.15814 0.0688,-0.06188 0.17877,-0.06188 0.0963,0 0.15814,0.06188 0.0688,0.06188 0.0688,0.15814 v 0.055 q 0,0.09626 -0.0688,0.158139 -0.0619,0.06188 -0.16502,0.06188 z"
           style="font-style:normal;font-variant:normal;font-weight:normal;font-stretch:normal;font-family:'Quicksand Light';-inkscape-font-specification:'Quicksand Light, ';fill:#ffffff;stroke-width:0.171891"
           id="path198" />
        <path
           d="m 243.66513,74.344363 q 0,0.508795 -0.22002,0.921333 -0.22002,0.405661 -0.61193,0.646308 -0.38504,0.233771 -0.85945,0.233771 -0.47442,0 -0.86633,-0.233771 -0.38504,-0.240647 -0.61193,-0.653184 -0.22002,-0.412537 -0.22002,-0.914457 0,-0.508796 0.22002,-0.921334 0.22689,-0.412537 0.61193,-0.646308 0.38503,-0.240647 0.86633,-0.240647 0.47441,0 0.85945,0.240647 0.39191,0.233771 0.61193,0.646308 0.22002,0.412538 0.22002,0.921334 z m -0.27503,0 q 0,-0.44004 -0.18564,-0.790697 -0.17876,-0.350656 -0.50192,-0.550049 -0.32315,-0.206269 -0.72881,-0.206269 -0.39879,0 -0.72882,0.206269 -0.32315,0.199393 -0.50879,0.550049 -0.18565,0.350657 -0.18565,0.790697 0,0.433164 0.18565,0.78382 0.18564,0.350657 0.50879,0.556925 0.33003,0.199393 0.72882,0.199393 0.40566,0 0.72881,-0.199393 0.32316,-0.199393 0.50192,-0.550049 0.18564,-0.357532 0.18564,-0.790696 z"
           style="font-style:normal;font-variant:normal;font-weight:normal;font-stretch:normal;font-family:'Quicksand Light';-inkscape-font-specification:'Quicksand Light, ';fill:#ffffff;stroke-width:0.171891"
           id="path200" />
        <path
           d="m 244.87523,75.939506 q 0,0.05501 -0.0412,0.09626 -0.0413,0.04125 -0.0963,0.04125 -0.0619,0 -0.10314,-0.04125 -0.0344,-0.04125 -0.0344,-0.09626 v -4.812934 q 0,-0.055 0.0412,-0.09626 0.0412,-0.04125 0.0963,-0.04125 0.0619,0 0.0963,0.04125 0.0412,0.04125 0.0412,0.09626 z"
           style="font-style:normal;font-variant:normal;font-weight:normal;font-stretch:normal;font-family:'Quicksand Light';-inkscape-font-specification:'Quicksand Light, ';fill:#ffffff;stroke-width:0.171891"
           id="path202" />
        <path
           d="m 248.86309,72.646084 q 0.0619,0 0.0963,0.04125 0.0412,0.04125 0.0412,0.09626 v 3.155909 q 0,0.05501 -0.0412,0.09626 -0.0413,0.04125 -0.0963,0.04125 -0.0619,0 -0.10314,-0.04125 -0.0344,-0.04125 -0.0344,-0.09626 v -0.618805 q -0.17189,0.350656 -0.52942,0.591303 -0.35753,0.233771 -0.79069,0.233771 -0.4538,0 -0.8182,-0.233771 -0.36441,-0.240647 -0.57068,-0.653184 -0.20627,-0.419413 -0.20627,-0.935084 0,-0.508796 0.20627,-0.914458 0.21314,-0.412537 0.57755,-0.639432 0.36441,-0.233772 0.81133,-0.233772 0.44691,0 0.80444,0.233772 0.35754,0.233771 0.51567,0.625681 v -0.61193 q 0,-0.055 0.0344,-0.09626 0.0413,-0.04125 0.10314,-0.04125 z m -1.44388,3.238417 q 0.37816,0 0.68068,-0.199393 0.30941,-0.206268 0.4813,-0.5638 0.17189,-0.357533 0.17189,-0.797572 0,-0.419413 -0.17189,-0.77007 -0.17189,-0.350656 -0.4813,-0.550049 -0.30252,-0.206269 -0.68068,-0.206269 -0.37816,0 -0.68757,0.199393 -0.30252,0.192517 -0.47441,0.543174 -0.17189,0.343781 -0.17189,0.783821 0,0.440039 0.17189,0.797572 0.17189,0.357532 0.47441,0.5638 0.30253,0.199393 0.68757,0.199393 z"
           style="font-style:normal;font-variant:normal;font-weight:normal;font-stretch:normal;font-family:'Quicksand Light';-inkscape-font-specification:'Quicksand Light, ';fill:#ffffff;stroke-width:0.171891"
           id="path204" />
      </g>
      <path
         style="fill:url(#linearGradient162);fill-opacity:1;stroke:none;stroke-width:0.264583px;stroke-linecap:butt;stroke-linejoin:miter;stroke-opacity:1"
         d="m 263.69266,94.623682 v 7.812088 c -26.94862,5.51453 -58.0103,-20.656839 -68.238,-23.587725 38.23709,13.384569 48.09342,21.095558 68.238,15.775637 z"
         id="path146"
         sodipodi:nodetypes="cccc" />
    </g>
  </g>
</svg>
