<?xml version="1.0" encoding="UTF-8" standalone="no"?>
<svg
   xmlns:dc="http://purl.org/dc/elements/1.1/"
   xmlns:cc="http://creativecommons.org/ns#"
   xmlns:rdf="http://www.w3.org/1999/02/22-rdf-syntax-ns#"
   xmlns:svg="http://www.w3.org/2000/svg"
   xmlns="http://www.w3.org/2000/svg"
   xmlns:sodipodi="http://sodipodi.sourceforge.net/DTD/sodipodi-0.dtd"
   xmlns:inkscape="http://www.inkscape.org/namespaces/inkscape"
   width="82.020836mm"
   height="82.020836mm"
   viewBox="0 0 82.020834 82.020833"
   version="1.1"
   id="svg57349"
   inkscape:version="1.0.2 (e86c870879, 2021-01-15)"
   sodipodi:docname="leandro_sciola.svg">
  <defs
     id="defs57343" />
  <sodipodi:namedview
     id="base"
     pagecolor="#ffffff"
     bordercolor="#666666"
     borderopacity="1.0"
     inkscape:pageopacity="0.0"
     inkscape:pageshadow="2"
     inkscape:zoom="1.9114693"
     inkscape:cx="154.99999"
     inkscape:cy="155"
     inkscape:document-units="mm"
     inkscape:current-layer="layer1"
     showgrid="false"
     inkscape:window-width="1920"
     inkscape:window-height="1029"
     inkscape:window-x="0"
     inkscape:window-y="27"
     inkscape:window-maximized="1"
     inkscape:snap-global="false"
     fit-margin-top="0"
     fit-margin-left="0"
     fit-margin-right="0"
     fit-margin-bottom="0"
     showguides="true"
     inkscape:guide-bbox="true"
     inkscape:document-rotation="0" />
  <metadata
     id="metadata57346">
    <rdf:RDF>
      <cc:Work
         rdf:about="">
        <dc:format>image/svg+xml</dc:format>
        <dc:type
           rdf:resource="http://purl.org/dc/dcmitype/StillImage" />
        <dc:title />
      </cc:Work>
    </rdf:RDF>
  </metadata>
  <g
     inkscape:label="Camada 1"
     inkscape:groupmode="layer"
     id="layer1"
     transform="translate(-122.7871,-77.427608)">
    <g
       id="g2332"
       transform="matrix(0.90110701,0,0,0.90110701,12.142783,7.6570476)">
      <circle
         style="fill:#800000;fill-opacity:1;fill-rule:evenodd;stroke:none;stroke-width:1.97548;stroke-miterlimit:4;stroke-dasharray:none;stroke-opacity:1"
         id="circle2309"
         cx="168.29825"
         cy="122.93876"
         r="45.51115" />
      <circle
         style="fill:#800000;fill-opacity:1;fill-rule:evenodd;stroke:#ffffff;stroke-width:1.78012;stroke-miterlimit:4;stroke-dasharray:none;stroke-opacity:1"
         id="circle2301"
         cx="168.29825"
         cy="122.93876"
         r="41.010418" />
      <path
         style="fill:#ffffff;fill-opacity:1;stroke:#ffffff;stroke-width:0.644672"
         d="m 178.4196,95.308687 c 1.15376,0 1.97807,0.08216 3.62628,0.246801 l -3.21455,4.614712 c -3.04918,-0.1647 -3.79014,-0.16375 -4.86147,-0.16375 -3.46125,0 -5.60467,1.56521 -6.84083,5.02646 -1.07137,3.21401 -2.2248,7.74628 -4.61473,17.96522 -2.06026,8.57071 -2.63675,9.64229 -7.00452,13.6804 l -2.22612,2.14304 h 15.57667 c 14.17463,0.0822 15.08017,-0.41206 20.43689,-11.70233 l 0.90653,1.5651 c -1.23616,3.13161 -3.79072,8.81844 -4.77966,10.7139 -1.4834,3.04921 -3.29583,3.95618 -7.5812,3.95618 -2.14266,0 -2.71981,-4.9e-4 -16.2352,-0.65982 -6.26319,-0.24719 -10.46621,-0.41169 -12.60887,-0.41169 -2.06029,0 -4.12034,0.0822 -8.07605,0.2468 1.23617,-1.5658 1.73091,-2.14266 2.88466,-3.29639 0.90654,0.0822 1.89548,0.0831 2.55476,0.0831 5.19187,0 7.33422,-3.05002 9.55931,-13.59859 3.21401,-15.32841 4.61457,-19.11919 8.65271,-23.23973 3.29643,-3.296407 7.25237,-6.097756 9.47746,-6.674628 1.40099,-0.32968 2.8021,-0.494856 4.3679,-0.494856 z m 7.05238,6.259123 c 2.81847,0 4.41272,1.43555 4.7318,4.36036 l -3.50919,2.49937 c -0.58498,-3.40342 -1.38272,-4.36035 -3.61621,-4.36035 -3.13753,0 -5.74288,2.97756 -5.74288,6.43413 0,2.28668 0.63826,3.19018 4.52026,6.22137 3.93521,3.08435 4.78595,4.20219 4.78595,6.38249 0,6.75365 -7.97674,13.40092 -16.11306,13.40092 -3.4566,0 -5.95668,-1.17099 -7.81792,-3.67037 l 2.34071,-5.5301 0.84992,-0.58421 c 0.42544,2.33987 0.85126,3.45583 1.96801,4.67894 1.43582,1.59534 3.77603,2.60638 6.0627,2.60638 4.62653,0 8.61495,-3.67002 8.61495,-7.81791 0,-2.44622 -0.95828,-3.88232 -4.57441,-6.75395 -3.08434,-2.39306 -4.20045,-4.14689 -4.20045,-6.53992 0,-5.26467 6.22244,-11.32711 11.69982,-11.32711 z"
         id="path2303"
         inkscape:connector-curvature="0"
         sodipodi:nodetypes="sccsccccccccscsccscccssccsscssccccsscas" />
    </g>
  </g>
</svg>
