<?xml version="1.0" encoding="UTF-8" standalone="no"?>
<svg
   xmlns:dc="http://purl.org/dc/elements/1.1/"
   xmlns:cc="http://creativecommons.org/ns#"
   xmlns:rdf="http://www.w3.org/1999/02/22-rdf-syntax-ns#"
   xmlns:svg="http://www.w3.org/2000/svg"
   xmlns="http://www.w3.org/2000/svg"
   xmlns:sodipodi="http://sodipodi.sourceforge.net/DTD/sodipodi-0.dtd"
   xmlns:inkscape="http://www.inkscape.org/namespaces/inkscape"
   width="82.020828mm"
   height="82.020828mm"
   viewBox="0 0 82.020826 82.020825"
   version="1.1"
   id="svg57349"
   inkscape:version="1.0.2 (e86c870879, 2021-01-15)"
   sodipodi:docname="leandro_sciola.svg">
  <defs
     id="defs57343" />
  <sodipodi:namedview
     id="base"
     pagecolor="#ffffff"
     bordercolor="#666666"
     borderopacity="1.0"
     inkscape:pageopacity="0.0"
     inkscape:pageshadow="2"
     inkscape:zoom="2.7032259"
     inkscape:cx="155"
     inkscape:cy="155"
     inkscape:document-units="mm"
     inkscape:current-layer="layer1"
     showgrid="false"
     inkscape:window-width="1920"
     inkscape:window-height="1029"
     inkscape:window-x="0"
     inkscape:window-y="27"
     inkscape:window-maximized="1"
     inkscape:snap-global="false"
     fit-margin-top="0"
     fit-margin-left="0"
     fit-margin-right="0"
     fit-margin-bottom="0"
     showguides="true"
     inkscape:guide-bbox="true"
     inkscape:document-rotation="0" />
  <metadata
     id="metadata57346">
    <rdf:RDF>
      <cc:Work
         rdf:about="">
        <dc:format>image/svg+xml</dc:format>
        <dc:type
           rdf:resource="http://purl.org/dc/dcmitype/StillImage" />
        <dc:title></dc:title>
      </cc:Work>
    </rdf:RDF>
  </metadata>
  <g
     inkscape:label="Camada 1"
     inkscape:groupmode="layer"
     id="layer1"
     transform="translate(-57.186013,-66.627572)">
    <g
       id="g999"
       transform="matrix(1.0012973,0,0,1.0012973,-20.410862,-3.0798772)"
       inkscape:export-xdpi="96"
       inkscape:export-ydpi="96">
      <circle
         style="fill:#21262d;fill-opacity:1;fill-rule:evenodd;stroke:#444c56;stroke-width:0.15875;stroke-miterlimit:4;stroke-dasharray:none;stroke-opacity:1"
         id="circle2309"
         cx="118.45362"
         cy="110.57442"
         r="40.877907"
         inkscape:export-xdpi="96"
         inkscape:export-ydpi="96" />
      <path
         style="fill:#ffffff;fill-opacity:1;stroke:#ffffff;stroke-width:0.474053"
         d="m 125.36107,89.607663 c 0.84841,0 1.45456,0.06042 2.66656,0.181482 l -2.36379,3.393388 c -2.24219,-0.121119 -2.78705,-0.120412 -3.57484,-0.120412 -2.5452,0 -4.12134,1.150961 -5.03034,3.696154 -0.78783,2.36339 -1.63599,5.696155 -3.3934,13.210535 -1.515,6.3024 -1.93892,7.09037 -5.1507,10.05977 l -1.63696,1.57587 h 11.45415 c 10.42318,0.0605 11.08907,-0.30301 15.02807,-8.6052 l 0.66662,1.15088 c -0.90901,2.30279 -2.78747,6.48455 -3.51468,7.87836 -1.0908,2.24221 -2.42356,2.90913 -5.57476,2.90913 -1.5756,0 -1.99999,-3.5e-4 -11.9384,-0.48518 -4.60558,-0.18177 -7.69623,-0.30273 -9.27182,-0.30273 -1.51501,0 -3.02985,0.0605 -5.938647,0.18148 0.90902,-1.1514 1.27281,-1.57559 2.12122,-2.42397 0.666607,0.0605 1.393817,0.0611 1.878617,0.0611 3.81778,0 5.39314,-2.2428 7.02934,-9.9996 2.36339,-11.2716 3.39328,-14.059105 6.36269,-17.089095 2.42399,-2.423991 5.33296,-4.483934 6.96916,-4.90813 1.03019,-0.242428 2.06049,-0.363887 3.21189,-0.363887 z m 5.18589,4.602586 c 2.07255,0 3.24486,1.055616 3.4795,3.206346 l -2.58046,1.83788 c -0.43015,-2.50266 -1.01675,-3.20633 -2.65914,-3.20633 -2.30715,0 -4.22296,2.18952 -4.22296,4.731265 0,1.6815 0.46934,2.34588 3.32391,4.57483 2.89373,2.26804 3.51932,3.09004 3.51932,4.69331 0,4.96623 -5.86563,9.85422 -11.8486,9.85422 -2.54177,0 -4.38017,-0.86106 -5.74883,-2.69895 l 1.72122,-4.06651 0.62498,-0.4296 c 0.31285,1.7206 0.62597,2.54122 1.44716,3.44062 1.05581,1.17312 2.77667,1.91657 4.45814,1.91657 3.40209,0 6.33493,-2.69872 6.33493,-5.74882 0,-1.79881 -0.70466,-2.85483 -3.36375,-4.96645 -2.26804,-1.75972 -3.08876,-3.04938 -3.08876,-4.80908 0,-3.871305 4.57562,-8.329271 8.60334,-8.329271 z"
         id="path2303"
         inkscape:connector-curvature="0"
         sodipodi:nodetypes="sccsccccccccscsccscccssccsscssccccsscas" />
    </g>
  </g>
</svg>
